<?xml version="1.0" encoding="utf-8"?>
<svg version="1.1" id="Layer_1" xmlns="http://www.w3.org/2000/svg" xmlns:xlink="http://www.w3.org/1999/xlink" x="0px" y="0px"
	 viewBox="0 0 1000 450" style="enable-background:new 0 0 1000 450;" xml:space="preserve">
<style type="text/css">
	.st0{fill:#FFFFFF;}
	.st1{display:none;}
	.st2{display:inline;fill:#EE1C4E;}
	.st3{font-family:'AlegreyaSansSC-ExtraBold';}
	.st4{font-size:46px;}
	.st5{letter-spacing:29;}
	.st6{display:inline;}
	.st7{fill:none;}
	.st8{display:inline;fill:#EE3268;}
	.st9{font-family:'AlegreyaSansSC-Bold';}
	.st10{font-size:110px;}
	.st11{letter-spacing:19;}
</style>
<g id="chinese">
	<g>
		<g>
			<g>
				<g>
					<path class="st0" d="M248.3,168.8c-0.3,0-0.5,0-0.6,0c-4.2,1-8.5,1.9-12.7,2.9c-1.2,0.3-2.4,1-3.6,1.5
						c-0.2,0.1-0.5,0.2-0.7,0.1c-4.1-0.4-7.6-2.3-10.6-5c-0.8-0.7-1.6-1.4-2.4-2.1c-0.3-0.3-0.5-0.8-0.7-1.2s-0.3-0.8-0.5-1.3
						c0.2,0.2,0.4,0.2,0.4,0.4c0.5,0.6,1.1,0.7,1.8,0.9c1.7,0.3,3.3,0.1,5-0.4c2.8-0.8,5.7-1.6,8.6-2.2c3.7-0.8,7.5-1.4,11.2-2.1
						c2.7-0.5,5.4-1,8.2-1.1c1.3-0.1,2.6-0.5,3.8-0.7c2-0.4,1.5-0.1,2-1.9c0.2-0.9-0.1-1.6-0.2-2.4c0-0.1-0.2-0.2-0.3-0.3
						c-0.6-0.2-1.2-0.4-1.8-0.6c-0.4-0.2-0.6-0.1-0.7,0.2c-0.2,0.4-0.4,0.9-0.7,1.3c-0.4,0.6-1,0.6-1.6,0.2c-0.8-0.5-1.5-1.1-1.9-2
						c-0.2-0.5-0.6-0.8-0.9-1.3h-0.1c0,0.2,0,0.4,0,0.5c-0.1,0.7-0.3,1.3-0.4,2c-0.1,0.4-0.3,0.8-0.4,1.2c-0.3,0.6-0.5,1.3-1,1.8
						c-0.7,0.9-1.7,0.9-2.4,0c-0.4-0.4-0.7-0.8-0.9-1.3c-0.5-1-1-2-1.5-2.9c-0.1-0.2-0.2-0.3-0.4-0.6c-0.1,0.4-0.3,0.6-0.3,0.8
						c-0.2,0.7-0.3,1.4-0.6,2c-0.7,1.6-2.1,2.5-3.6,3c-1.4,0.5-3,0.9-4.5,1.2c-1.7,0.3-3.3,0.1-5-0.5c-1.1-0.4-1.6-1.2-2.1-2.1
						c-0.4-0.9-0.9-1.8-1.4-2.6c-0.6-0.9-0.6-1.6,0.3-2.3c1.3-1.1,2.7-2.2,4-3.4c0.2-0.2,0.4-0.4,0.6-0.7c1.2-2.2,2.4-4.4,3.5-6.6
						c0.1-0.2,0.1-0.5,0.1-0.8c-0.8,0.3-1.8,0.2-2.3,1.2c-0.4,0.9-1.7,1.2-2.5,0.7c-1.6-1.1-3.2-2.1-4.6-3.4
						c-0.9-0.8-1.4-2.1-1.6-3.4c-0.2-2-0.2-1.6,1.1-2.7c1-0.9,1.9-2,2.8-3c1.5-1.7,2.9-3.5,4.3-5.3c1.8-2.4,3.5-4.8,3.9-7.8
						c0-0.3,0.2-0.6,0.2-0.9s0-0.6,0.1-1c0.2,0.1,0.3,0.2,0.4,0.3c0.7,0.8,1.5,1.5,2.2,2.3c0.4,0.5,0.7,1.1,0.9,1.7
						c0.5,2.1,0.5,4.3-0.5,6.3c-0.7,1.3-1.5,2.5-2.4,3.6c-0.7,0.9-1.5,1.8-2.3,2.7c-0.1,0.1-0.2,0.2-0.2,0.3
						c-0.1,0.1-0.1,0.3-0.1,0.4c0.1,0,0.3,0.1,0.4,0.1c0.4-0.1,0.8-0.2,1.2-0.3c1.3-0.5,2.6-0.9,3.9-1.4c0.6-0.2,1.1-0.6,1.4-1.2
						c0.3-0.5,0.7-1,1-1.5c0.2-0.4,0.4-0.9,0.5-1.4c0.1-0.4,0.2-0.5,0.6-0.5c2.3,0.2,4.3,1.1,5.5,3.3c0.2,0.3,0.3,0.6,0.5,0.8
						c0,0,0.1,0,0.1,0.1c0-0.1,0.1-0.2,0.1-0.2c0.1-1.8,0.3-3.6,0.4-5.5c0.1-1,0-1.1-1-0.9c-2.3,0.5-4.7,0.8-7,0.7
						c-0.1,0-0.2,0-0.4-0.1c0.2-0.4,0.4-0.8,0.7-1.1c0.2-0.3,0.3-0.5,0.5-0.7c0.3-0.6,0.7-1,1.4-1.2c1.1-0.3,1.8-1.2,2.6-2
						c0.5-0.4,0.8-1,1.2-1.5c2.2-3,4.5-6,6.7-9.1c1.2-1.7,2.3-3.5,3.6-5.2c1.4-1.9,2.9-3.8,4.3-5.7c0.2-0.3,0.5-0.6,0.8-0.9
						c0.3,0.3,0.5,0.6,0.7,0.9c0.7,1,1.4,2,2.2,2.9c1.8,2,2.9,4.4,3.5,7c0.2,0.7-0.1,1.6-0.2,2.4c0,0.2-0.1,0.4-0.1,0.7
						c0,0.7-0.4,1-1,1.1c-2.9,1-5.6,2.4-8.1,4.2c-0.8,0.6-1.7,1.2-2.5,1.8c-0.1,0.1-0.3,0.4-0.2,0.5c0.1,0.2,0.4,0.4,0.6,0.4
						c0.3,0,0.6,0,0.9-0.1c2.3-0.7,4.7-1.5,7-2.2c0.7-0.2,1.2-0.6,1.5-1.2c0.2-0.5,0.6-0.7,1.1-0.9c0.4-0.1,0.7-0.1,1.1,0.2
						c0.6,0.4,1.2,0.7,1.8,1c1.2,0.5,2.4,0.9,3.1,2c0.4,0.6,0.7,1.3,1.1,2c0.5,0.7,0.9,1.4,1.5,2.1c0.7,0.8,1.5,1.5,2.2,2.2
						c0.3,0.3,0.4,0.7,0.5,1.1c0.1,0.9,0.2,1.8,0.2,2.6c0,0.3-0.1,0.6-0.2,0.8c-0.2,0.7-0.5,1.4-0.7,2.2c4.1-4.7,8.1-9.6,9.7-15.9
						h0.1c1.5,1.2,3,2.3,4.3,3.7c0.9,1,1.3,2.2,0.9,3.5c-0.1,0.4-0.4,0.8-0.7,1c-0.8,0.5-1.3,1.1-1.7,2c-0.5,1.1-1.1,2.2-1.7,3.3
						c-0.3,0.6-0.8,1-1.3,1.5c-0.1,0.1-0.2,0.3-0.2,0.4c0.1,0.1,0.3,0.2,0.4,0.2c0.5,0,1,0,1.5-0.1c0.2,0,0.4-0.2,0.5-0.3
						c1.3-1.7,2.5-3.5,3.7-5.2c0,0,0.1-0.1,0.2-0.2c1.3,1.1,2.9,2,3.6,3.8c0.3,0.8,0.1,1.5-0.5,2.1c-0.4,0.4-0.8,0.8-1.2,1.2
						c-1.6,1.4-2.5,3.3-3.6,5c-0.9,1.5-1.7,3-3,4.2c-0.3,0.2-0.4,0.6-0.6,1c0.3,0,0.7,0.1,1,0.1c0.7,0.1,1.4,0.1,2.1,0.2
						c0.2,0,0.4,0,0.7,0c-0.3-0.6-0.5-1.2-0.8-1.6c-0.5-0.7-0.4-1.4,0.3-1.8c0.4-0.2,0.8-0.4,1.2-0.5c0.8,0,1.6,0,2.4,0.1
						c0.7,0.1,1.3,0.5,1.7,1.2c1.2,1.7,2,3.5,2.6,5.4c0.2,0.7,0.8,1.3,1.1,2c0.2,0.4,0.4,0.8,0.4,1.3c0.1,0.7,0,1.5,0,2.2
						c-0.1,1.2-0.8,1.9-1.8,2.4c-1.3,0.6-2.6,0.6-3.8-0.3c-0.9-0.6-1.5-1.4-2.1-2.3c-0.5-0.7-0.5-0.6-1.3-0.3
						c-3.2,1.2-6.4,2.2-9.7,2.9c-1.3,0.3-2.5,0.2-3.7,0c-1-0.2-1.7-0.6-2-1.7c-0.1-0.4-0.4-0.9-0.5-1.3h-0.1
						c-0.1,0.4-0.3,0.8-0.4,1.2c-0.1,0.5-0.3,0.9-0.6,1.2c-1,1-2,2-3.4,2.5c-0.5,0.2-1.1,0.2-1.7,0.3c-0.2,0.1-0.5,0.2-0.7,0.3
						c-0.5,0.4-0.9,0.8-1.4,1.2s-1.2,0-1.5-0.7s-0.6-1.4-1-2c-0.5-0.8-0.6-0.8-1.6-0.5c0.1,0.3,0.2,0.6,0.4,0.8
						c0.7,0.8,0.9,1.8,0.7,2.8c-0.1,0.5,0.1,0.6,0.6,0.6c4.3-0.4,8.6-0.7,12.9-1.1c2-0.2,4.1-0.3,6.1-0.5c0.7,0,1.2-0.3,1.7-0.7
						s1.1-0.8,1.6-1.2c0.6-0.4,1.1-0.5,1.8-0.3c1.6,0.5,2.8,1.5,4,2.6c0.3,0.3,0.8,0.5,1.1,0.8c0.9,0.6,1.8,1.1,2.5,1.8
						c0.9,0.9,1.1,2.1,1.1,3.3c0,0.1,0,0.2-0.1,0.3c-0.7,1.2-1.5,2.4-2.2,3.5c-0.1,0.1-0.4,0.2-0.7,0.2c-1.7-0.1-3.3-0.2-5-0.2
						c-3.9,0-7.8,0.1-11.6,0.1c-2.3,0-4.5,0.1-6.8,0.4c-0.3,0-0.7,0.1-1,0.2c-0.2,0-0.3,0.2-0.5,0.3c0.1,0.1,0.2,0.3,0.3,0.4
						c0.9,0.6,1.7,1.2,2.6,1.8c3.7,2.2,7.4,4.3,11.2,6.4c1,0.5,2,1,3,1.5c2.6,1.3,5.3,2.7,7.9,4c2,0.9,4,1.9,6,2.6
						c1.3,0.5,2.8,0.7,4.2,1c0.9,0.2,1.9,0.5,2.8,0.9c0.9,0.3,1.4,1.1,1.8,1.9c0.2,0.5-0.2,0.9-0.5,1.1c-0.4,0.3-0.8,0.4-1.3,0.6
						c-1,0.5-2,1.1-2.9,1.7c-1.4,0.8-2.9,1.7-4.4,2.4c-0.2,0.1-0.5,0.1-0.8,0c-2.2-0.9-4.4-1.6-6.7-1.9c-0.3,0-0.5-0.1-0.8-0.1
						c-1-0.2-1.7,0.1-2.4,0.8c-0.3,0.3-0.5,0.3-0.8,0.1c-4.2-2.5-8.3-5-12-8.2c-1.5-1.3-2.9-2.7-4.4-4c-1.3-1.1-2.6-2.1-3.9-3.2
						c-1.2-1-2.3-2.1-3.4-3.1c-0.1-0.1-0.2-0.2-0.5-0.4c-0.1,0.6-0.3,1.1-0.2,1.5c0,1.1,0.2,2.3,0.3,3.4c0.1,2.3,0.3,4.7,0.3,7
						c0,3.2,0.1,6.4-0.1,9.6c-0.2,2.5-1.1,4.8-2.6,6.9c-0.1,0.2-0.1,0.5-0.1,0.8c0.2,0.9,0.2,1.8-0.3,2.7c-0.6,0.9-0.9,0.7-1.6,0.4
						c-1.8-0.9-2.7-2.5-3.4-4.3c-1.5-3.6-2.4-7.4-3.2-11.3c-0.4-2.1-0.1-4.1,1.1-5.9c0.1-0.2,0.2-0.3,0.2-0.5
						c0.1-1.1,0.2-2.3,0.2-3.4c0-0.6-0.1-0.6-0.7-0.6c-0.6,0-1.1,0.2-1.6,0.6c-1,0.9-2.2,1.7-3.2,2.6c-0.7,0.8-1.2,1.8-1.9,2.7
						c-0.1,0.2-0.3,0.4-0.5,0.5c-3.4,1.8-6.9,3.5-10.5,4.8c-2,0.7-4,1-6,1.1c-2.9,0.2-5.8-0.1-8.7-0.1c-0.1,0-0.2,0-0.3,0
						c0.8-0.5,1.6-1,2.3-1.5c1.6-1.1,3.2-2.3,4.7-3.5c1.9-1.5,3.9-3.1,5.8-4.6c0.6-0.5,1.2-1.1,1.8-1.7c1.9-1.9,3.9-3.7,5.8-5.6
						c1.8-1.8,3.6-3.6,5.4-5.5C248.2,169,248.2,168.9,248.3,168.8z M248.1,147.1c-1.1-4.4-1-8.8-0.3-13.3c-0.2,0.2-0.3,0.4-0.4,0.7
						c-0.4,0.7-0.8,1.3-1.2,2c-0.5,0.8-1.1,1.6-1.6,2.5c-0.2,0.3-0.3,0.6-0.5,0.9c-0.5,0.7-1,1.3-1.4,2.1c-0.4,0.6-0.3,0.7,0.3,1.1
						C244.9,144.1,246.9,145,248.1,147.1C247.9,147.1,248,147.1,248.1,147.1z M242.6,149.2c-0.3-1.5-0.7-2.8-1.5-3.9
						c-0.2-0.3-0.6-0.2-0.9,0.1c-0.8,0.9-1.6,1.7-2.5,2.5s-1.9,1.6-2.9,2.4c-0.2,0.2-0.3,0.5-0.5,0.7c0.3,0,0.6,0.1,0.9,0.1
						c0.1,0,0.3,0,0.4-0.1c1-0.2,2-0.5,2.9-0.7c1.1-0.3,2.2-0.5,3.3-0.8C242.2,149.5,242.4,149.3,242.6,149.2z M266.8,131.4
						c0.3-1.6,0-2.8-1.1-3.9c-0.3-0.3-0.7-0.3-1.1-0.1c-0.4,0.2-0.7,0.4-1.1,0.5c-0.9,0.3-1.7,0.5-2.6,0.8c-0.6,0.2-1.2,0.4-1.8,0.5
						c-0.1,0-0.3,0.1-0.3,0.3c-0.2,0.5-0.4,0.9-0.5,1.4c-0.1,0.3,0,0.6,0,0.9c0.3,0,0.6,0,0.8-0.1c1-0.4,2-0.9,3-1.3
						c1.2-0.4,2.3-0.4,3.4,0.3C265.9,131,266.3,131.2,266.8,131.4z M276,146.8c3.1-2.1,5.5-4.7,6.7-8.3c-0.2,0.1-0.4,0.3-0.6,0.5
						c-0.6,0.6-1,1.4-1.7,1.9c-1,0.8-2.1,1.2-3.3,0.5c-0.1-0.1-0.3-0.1-0.5-0.2C276.5,143.1,276.2,144.9,276,146.8z M265.7,142.6
						c0-0.6,0.1-1.1,0.1-1.6c0-0.6-0.2-0.7-0.7-0.5c-0.9,0.5-1.9,0.7-2.9,0.5c-1.5-0.1-2.8-0.5-3.9-1.5c-0.2-0.2-0.5-0.2-0.5,0.2
						c-0.1,1-0.3,2-0.4,3c-0.1,0.9,0,0.9,0.9,0.7c0.1,0,0.2-0.1,0.3-0.1c1.2-0.4,2.5-0.8,3.7-1.1c0.8-0.2,1.6-0.3,2.3,0.1
						C265,142.4,265.3,142.5,265.7,142.6z"/>
				</g>
			</g>
		</g>
		<g>
			<g>
				<g>
					<path class="st0" d="M450.2,185.8c0.4-0.1,0.8-0.2,1.2-0.3c1.7-0.4,3.4-0.7,5-1.1c2-0.5,4.1-0.9,6.1-1.1c1.9-0.2,3.8-0.4,5.7-1
						c1.2-0.4,2.6-0.4,3.9-0.6c0.4-0.1,0.8-0.2,1.2-0.3c0.1,0,0.2-0.3,0.2-0.4c-0.1-1.2-0.1-2.4-0.2-3.7c0-0.3-0.2-0.3-0.4-0.3
						c-2,0.1-4-0.2-6-0.7c-1.2-0.3-2.1-0.9-3-1.7c-1.1-1-1.8-2.4-2.1-3.8c-0.1-0.4-0.2-0.7-0.5-1c-0.4-0.3-0.6-0.9-0.8-1.3
						c0.7,0,1.3,0,1.9-0.1c0.4,0,0.9-0.1,1.3-0.1c1,0,2.1,0.1,3.1,0c1.2-0.1,2.4-0.1,3.5-0.5c0.6-0.2,1.2-0.3,1.8-0.4
						c0.4-0.1,0.5-0.2,0.5-0.6c-0.2-1.5-0.3-3.1-0.4-4.7c0-0.3-0.1-0.4-0.5-0.4c-0.8,0.2-1.5,0.3-2.3,0.5c-2,0.4-3.7-0.1-5.4-1.2
						c-0.5-0.4-1.1-0.7-1.6-1.1c-0.6,0.9-1.2,1.6-1.6,2.5c-0.8,1.8-1.9,3.5-3.2,5c-0.3,0.3-0.3,0.6-0.3,1c0,0.5-0.2,0.9-0.3,1.4
						c-0.1,0.3-0.2,0.6-0.2,0.8c0.3,2.5-0.7,4.5-2.6,6.1c-1.5,1.2-3.3,1.7-5,2.5c-3.3,1.5-6.8,2.7-9.9,4.7c-0.7,0.5-1.5,1-2.2,1.5
						c-1.3,1-2.8,1.4-4.4,1.5c-0.8,0-1.4,0-1.9-0.8c-0.1-0.1-0.3-0.2-0.5-0.2c-1.2,0-2.2-0.6-3-1.3c-2.1-1.7-3.4-3.9-3.6-6.7
						c0-0.6-0.1-1.1,0.2-1.6c0.1-0.1,0.3-0.3,0.5-0.3c0.7-0.2,1.4-0.2,2.1-0.5s1.4-0.7,2-1.1c1.1-0.7,2.2-1.4,3.2-2.2
						c1.3-1.1,2.4-2.3,3.6-3.4c0.4-0.4,0.9-0.8,1.3-1.2c0.1-0.1,0.2-0.3,0.2-0.5c0.1-1.2,0.1-2.4,0.1-3.6c0-0.9-0.1-1.8-0.2-2.7
						c0-0.3-0.2-0.3-0.4-0.4c-0.8-0.2-1.7-0.4-2.4-0.8c-1.6-0.7-2.6-2.1-3.4-3.6c-0.5-1-0.9-2-1.4-2.9c-0.1-0.2-0.3-0.3-0.4-0.5
						c-0.4-0.5-0.5-0.9,0-1.3c0.4-0.4,0.5-0.8,0.3-1.4c-0.1-0.3-0.1-0.6-0.1-0.9l0.1-0.1c0.3,0.2,0.5,0.4,0.8,0.7
						c0.5,0.5,1.1,0.7,1.9,0.6c1.4-0.1,2.6-0.7,3.8-1.4c0.6-0.3,1.2-0.7,1.7-1.1c0.9-0.8,1.6-1.7,1.6-2.9c0.1-1.8,0.3-3.6,1.1-5.2
						c0-0.1,0.1-0.2,0.1-0.4c-0.2,0-0.4,0-0.6,0c-1.6,0.1-3-0.5-4.2-1.5c-2.2-1.8-3.7-4.1-4.7-6.8c-0.2-0.6-0.5-1.1-0.9-1.6
						c-0.9-1.2-1.9-2.3-2.9-3.4c-0.5-0.5-0.4-1-0.2-1.6c0.2-0.5,0.6-0.9,1.2-1c0.9-0.1,1.6,0.2,2.3,0.6c0.8,0.4,1.7,0.8,2.5,1.2
						c0.6,0.3,1.2,0.2,1.8-0.1c0.7-0.4,1.5-0.7,2.1-1.2c2.1-1.5,4.3-3.1,6.4-4.7c0.6-0.5,1.1-0.8,1.9-0.4c0.6,0.3,1.3,0.4,1.9,0.7
						c1.3,0.7,2.5,1.5,3.7,2.3c1,0.6,1.5,1.6,2.2,2.5c0.1,0.1,0.2,0.3,0.3,0.4c0.1,0.1,0.2,0.1,0.3,0.2c0-0.1,0.1-0.3,0.1-0.4
						c-0.1-0.7-0.3-1.4-0.5-2.1c-0.3-1.3-0.3-2.7,0-4c0.2-1,0.7-1.2,1.7-1c2.8,0.6,4.8,2.2,6.3,4.6c0.3,0.4,0.5,0.8,0.8,1.2
						c0.2,0.3,0.3,0.3,0.6,0.2c2.1-1.2,4.4-2.2,6.8-2.8c0.9-0.2,1.8-0.7,2.7-1.1c3.2-1.2,6.4-2,9.8-2.3c1.5-0.1,2.9-0.1,4.4-0.2
						c0.2,0,0.4-0.1,0.5-0.2c0.3-0.3,0.6-0.7,0.7-1c0.2-0.5,0.6-0.7,1.1-0.8c0.2,0,0.4-0.1,0.5-0.3c0.2-0.4,0.5-0.4,0.9-0.3
						c1.4,0.4,2.6,1.1,3.7,2c1.7,1.5,3.4,3.1,5,4.7c1.2,1.2,2.4,2.6,3.5,3.9c0.9,1.2,1.8,2.4,2.7,3.6c0.4,0.5,0.7,1,1,1.5
						c0.6,1.2,0.3,2.3-0.8,3.2c-1.5,1.1-2.8,2.4-3.8,4c-0.6,1-0.9,2.2-1.3,3.3c-0.2,0.6-0.5,1.3-0.7,1.9c-0.2,0.5-0.4,0.9-0.4,1.4
						c-0.3,1.7-0.8,3.3-1.8,4.7c-0.1,0.1-0.1,0.4,0,0.6c0.8,1.3,0.6,3.2-0.4,4.3c-0.4,0.4-0.5,0.7-0.5,1.2c0,1.1-0.4,2-0.8,3
						c-0.1,0.2-0.4,0.4-0.7,0.4c-0.8,0.2-1.7,0.3-2.5,0.4c-2.9,0.3-5.7,0.8-8.5,1.5c-0.5,0.1-0.8,0.3-0.8,0.8
						c-0.1,0.6-0.1,1.2-0.1,1.9c0,0.6,0,1.3,0,2c0.6-0.1,1.2-0.2,1.8-0.3c0.8-0.1,1.7-0.3,2.5-0.2c0.5,0,1,0.3,1.5,0.6
						c1.7,1,3.1,2.4,4.6,3.7c0.2,0.2,0.4,0.6,0.4,0.9c0.1,0.4,0.1,0.8,0.2,1.3c0.3,1.6-1.3,3.7-2.9,3.8c-0.9,0.1-1.8,0.4-2.7,0.6
						c-0.2,0-0.5,0-0.7,0c-0.8,0-1.6,0-2.4,0.2c-0.7,0.2-1.5,0.2-2.2,0.2c-0.5,0-0.6,0.2-0.6,0.7c0,1.1,0,2.2,0,3.4
						c0,0.4,0.2,0.6,0.6,0.5c0.9-0.1,1.8-0.2,2.7-0.5c1.6-0.5,3.3-0.5,5-0.8c1-0.1,1.9-0.2,2.9-0.2c0.8,0,1.7,0.1,2.5,0.4
						c1,0.3,2,0.8,2.9,1.5c0.6,0.6,1.4,1.1,2.1,1.7c1.7,1.2,3.3,2.5,4.5,4.2c1.1,1.5,1.1,3.1,0.6,4.8c-0.4,1.2-1.4,2.1-2.9,1.8
						c-1.5-0.4-3-0.6-4.5-0.8c-2.3-0.3-4.6-0.7-7-0.5c-1.9,0.1-3.8-0.1-5.7,0.2c-2,0.3-4.1,0.7-6.1,1c-2.6,0.4-5.3,0.6-7.9,1.1
						c-1.2,0.2-2.4,0.6-3.6,0.9c-0.9,0.2-1.7,0.4-2.5,0.7c-1.3,0.4-2.6,0.3-3.8,0c-1.8-0.4-3.4-1.1-5-2c-2.1-1.2-3.8-2.8-4.9-5
						c-0.4-0.8-0.9-1.5-1.4-2.3C450.4,186.2,450.3,186.1,450.2,185.8z M454.2,131.8c-0.1,0-0.1,0-0.2,0c-0.2,0.5-0.5,1-0.7,1.5
						c-0.1,0.4-0.4,0.6-0.8,0.8c-2.7,1.3-5.3,2.9-7.7,4.7c-0.4,0.3-0.4,0.5,0,0.8s0.5,0.7,0.6,1.2c0.3,1.2,0.6,2.4,0.8,3.5
						c0.2,0.8,0.7,1.1,1.4,1.3c2.6,0.6,5.2,1.2,7.9,1.8c0.1,0,0.3,0.1,0.4,0.2c0.3,0.5,0.6,1.1,0.8,1.6c0.1,0.2,0.2,0.5,0.4,0.7
						c0.4,0.6,0.9,1.1,1.3,1.6c0.4,0.6,0.3,1.4-0.3,1.8c-1.6,1.1-3.2,2.2-5,2.8c-1.5,0.6-3,1.2-4.4,1.8c-0.3,0.1-0.5,0.2-0.5,0.6
						c0.1,2.6,0.2,5.2,0.3,7.8c0,0.4,0.3,0.6,0.7,0.5c0.2,0,0.3-0.1,0.5-0.2c2.6-1.3,5.2-2.7,7.8-4c1.3-0.7,2.5-1.5,3-3.1
						c0.1-0.2,0.1-0.3,0.3-0.5c0.5-0.7,0.8-1.4,0.3-2.3v-0.1c-0.2-1.2-0.4-2.4-0.6-3.5c-0.3-1.7-0.5-3.4-1.3-4.9
						c0-0.1,0-0.1-0.1-0.2c-0.6-2-1.1-4.1-1.7-6.1s-1.1-4-1.7-6.1C455.1,134.4,454.6,133.1,454.2,131.8z M477.7,128.7
						c0.4,0.5,0.7,1,1.1,1.4c0.5,0.7,1.1,1.3,1.5,2c0.3,0.4,0.5,0.5,0.9,0.5c0.5,0,1,0,1.5,0.2c1.2,0.4,2.4,0.8,3.6,1.3
						c1,0.4,1.6,1.1,1.8,2.2c0,0.1,0.2,0.3,0.4,0.4c0.1,0,0.3-0.2,0.4-0.3c0.1-0.5,0.3-1,0.3-1.5c-0.1-1.3,0-2.6,0.4-3.8
						c0.1-0.2,0-0.4-0.1-0.6c-0.5-1-1.1-1.9-1.6-2.9c-0.2-0.3-0.4-0.4-0.8-0.4c-1.1,0.2-2.1,0.4-3.2,0.5c-1.7,0.3-3.3,0.5-5,0.8
						C478.4,128.4,478.1,128.6,477.7,128.7z M474.8,129.3c-0.2,0-0.3,0-0.4,0c-2.7,0.3-5.4,0.9-8,1.5c-0.9,0.2-1.2,0.7-0.8,1.6
						c0.5,1.1,0.9,2.3,1.4,3.4c0.1,0.3,0.2,0.3,0.5,0.2c1.8-0.5,3.6-1,5.5-1.5c0.4-0.1,0.6-0.3,0.7-0.8c0.3-1.4,0.7-2.7,1.1-4.1
						C474.7,129.6,474.7,129.5,474.8,129.3z M472.6,147.4L472.6,147.4c0-0.7,0-1.4,0-2.1c0-0.3-0.1-0.5-0.4-0.6
						c-1-0.1-2-0.3-3.1-0.4c-0.6-0.1-0.9,0.2-0.9,0.9c0,0.4,0,0.8-0.1,1.2c-0.3,1-0.7,1.9-1.1,2.9c-0.1,0.4-0.2,0.8-0.2,1.2
						c0,0.3,0.1,0.4,0.5,0.4c1.6-0.3,3.2-0.6,4.8-0.9c0.3-0.1,0.5-0.2,0.5-0.5C472.6,148.7,472.6,148.1,472.6,147.4z M486.7,141.6
						c-0.4,0-0.8,0-1.1,0.1c-0.9,0.3-1.8,0.6-2.8,0.8c-0.5,0.1-0.7,0.4-0.8,0.9c-0.1,1-0.3,2-0.5,3c-0.1,0.4-0.2,0.9-0.3,1.4
						c1.1-0.2,2-0.4,2.9-0.6c0.2,0,0.3-0.3,0.4-0.5c0.6-1.5,1.3-3.1,1.9-4.6C486.6,142.1,486.6,141.9,486.7,141.6z"/>
				</g>
			</g>
		</g>
		<g>
			<g>
				<g>
					<path class="st0" d="M575.3,133.7c0.3,0.1,0.5,0.3,0.7,0.3c0.6,0,1.2-0.1,1.8-0.1s1.3,0,1.8,0.3c1.9,0.9,3.4,2.2,4.7,3.8
						c0.7,0.9,0,2.3-1.3,2.5c-0.7,0.1-1.3,0.3-1.8,0.8c-0.7,0.6-1.5,1-2.5,1.1c-0.2,0-0.5,0.2-0.7,0.3c0,0.1,0,0.1,0,0.2
						c0.1,0,0.2,0.1,0.3,0.1c1.5,0,3.1,0,4.6-0.4c1.4-0.4,2.6-1.1,3.6-2.2c0.1-0.1,0.5-0.2,0.6-0.1c1.6,0.4,3.2,0.9,4.6,1.9
						c0.2,0.1,0.4,0.3,0.6,0.4c1.1,0.6,1.1,1.7,1.1,2.7c0,0.2-0.2,0.3-0.4,0.5c-0.6,0.9-1.5,1.2-2.6,1.1c-0.5,0-0.9,0.2-1.3,0.5
						c-1.3,1.1-2.7,2.2-4,3.3c-0.8,0.7-1.5,1.6-2.3,2.3c-1.8,1.6-3.6,3.2-5.5,4.7c-0.9,0.7-1.9,1.1-2.9,1.6
						c-0.3,0.2-0.6,0.4-0.8,0.6c0,0,0,0.1,0.1,0.1c0.4,0,0.8-0.1,1.2-0.1c1.7-0.2,3.3-0.5,5-0.7c0.8-0.1,1.6-0.2,2.4-0.3
						c1,0,1.7-0.7,2.4-1.2c0.4-0.3,0.7-0.3,1.1-0.2c1.7,0.3,3.5,0.7,5.2,1c0.1,0,0.2,0,0.2,0c0.8,0.7,1.9,0.7,2.6,1.5
						c0.2,0.3,0.6,0.5,0.8,0.7c1,0.9,1,2,0,3c-0.4,0.4-1,0.7-1.5,1c-0.3,0.2-0.6,0.3-0.7,0.8c-0.1,0.4-0.5,0.7-1.1,0.8
						c-3.3,0.2-6.6,0-9.8,0.6c-1.3,0.2-2.7,0.2-4,0.4c-1.4,0.2-2.8,0.4-4.2,0.7c-2.4,0.5-4.9,1-7.3,1.5c-0.3,0.1-0.6,0.2-0.9,0.2
						c-0.9-0.1-1.5,0.4-2,1.1c-0.2,0.3-0.5,0.6-0.8,1c1.8-0.3,3.5-0.5,5.2-0.8c2.1-0.4,4.3-0.8,6.4-1.3c0.3-0.1,0.6-0.2,0.4-0.6
						c-0.1-0.2,0-0.4-0.1-0.5c0.4-0.2,0.8-0.6,1.2-0.6c0.6-0.1,1.2,0.1,1.8,0.2c0.3,0,0.6,0.1,0.8,0.1c0.7,0.2,1.4,0.4,2,0.8
						c0.4,0.2,0.7,0.7,1.1,1c0.3,0.3,0.6,0.6,0.9,0.8c0.3,0.2,0.6,0.4,1,0.7c-0.1,0.2-0.3,0.3-0.4,0.4c-0.1,0.2-0.3,0.4-0.4,0.6
						c-0.1,1.3-0.9,2.2-1.6,3.2c-2,2.7-4,5.3-6.1,7.9c-0.5,0.6-0.5,0.8,0.2,1.1c1.2,0.5,2.4,0.9,3.6,1.4c1.1,0.4,2.3,0.8,3.4,1.2
						c0.4,0.1,0.9,0.1,1.3,0.2c1.6,0.2,3.2,0.4,4.7,0.7c1.7,0.3,3.4,0.6,5.1,0.9c0.3,0.1,0.7,0.2,1,0.3c2.4,0.9,4.9,1.7,7.3,2.6
						c0.8,0.3,1.6,0.9,2.4,1.3c0.2,0.1,0.2,0.4,0.3,0.7c0,0.1,0,0.2-0.1,0.3c-0.4,1.1-0.8,2.3-1.3,3.4c-0.1,0.3-0.3,0.5-0.7,0.4
						c-0.6-0.1-1.2,0.1-1.5,0.7c-0.3,0.5-0.7,0.5-1.2,0.4c-1-0.2-2-0.2-2.9,0.2c-0.1,0.1-0.3,0.1-0.5,0.1c-0.5,0-0.9,0.1-1.3,0.4
						c-0.3,0.3-0.9,0.3-1.4,0.4c-2.4,0.4-4.9,0.3-7.3,0.3c-0.9,0-1.9,0-2.7-0.5c-1.1-0.7-2.2-1.4-3.3-2c-2.7-1.5-5.5-2.9-8.2-4.5
						c-1.3-0.7-2.5-1.5-3.8-2.4c-0.4-0.3-0.7-0.3-1.1,0.1c-1,1-2.1,1.9-3.2,2.8c-1.4,1.1-3,1.7-4.7,2.3c-2,0.7-4.1,1.1-6.3,1
						c-1.4,0-2.8,0-4.2,0.1c-2,0-3.8-0.6-5.1-2.2c-0.7-0.8-1.6-1.5-2.6-1.8c-0.2-0.1-0.5,0-0.7,0.1c-2.3,1-4.6,2.3-7.1,2.8
						c-0.9,0.2-1.8,0.4-2.7,0.5c-1.5,0.2-2.8-0.2-4.1-1c-0.7-0.4-1.3-0.8-2.2-0.7c9-6,16.9-13.2,24.3-21c0-0.1,0-0.2-0.1-0.3
						c-0.3,0-0.6-0.2-0.8-0.1c-0.8,0.2-1.6,0.6-2.4,0.9c-2.7,1-5.5,1.7-8.4,0.7c-2-0.7-3.9-1.7-5.3-3.5c-0.4-0.6-0.8-1.3-1.2-2.1
						c0.7,0.1,1.3,0.1,2,0.2c1.1,0.2,2.2,0.1,3.3-0.3c2.7-0.9,5.5-1.7,8.2-2.5c2.1-0.6,4.1-1.3,6.2-1.9c1.5-0.4,3.1-0.7,4.6-1
						c0.3-0.1,0.6-0.2,0.8-0.4c0.6-0.5,1.2-1,1.8-1.5c-1.4-0.2-2.8-0.2-3.6-1.4c-0.8-1-1.4-2.2-2.1-3.3c-0.7,0.3-1.4,0.7-2.3,0.9
						c-1.8,0.5-3.2,1.5-4.8,2.3c-1.4,0.7-2.8,1.1-4.3,1.4c-0.4,0.1-0.7,0.3-1.1,0.4c-1.4,0.7-2.9,1.3-4.6,1.2
						c-0.9-0.1-1.7-0.3-2.6-0.6c-0.9-0.3-1.7-0.8-2.6-1.2c-1.5-0.6-2.4-1.7-3-3.2c0.7-0.3,1.4-0.7,2.1-1c0.8-0.3,1.7-0.6,2.5-0.9
						c0.4-0.2,0.9-0.3,1.3-0.6c1.1-1,2.2-2.1,3.2-3.2c0.1-0.1,0.1-0.1,0.2-0.4c-0.7,0.1-1.3,0.2-1.8,0.3c-1.8,0.3-3.6,0.7-5.5,1
						c-0.3,0.1-0.6,0.1-0.9,0c-0.8,0-1.4-0.5-1.4-1.4c0.1-1.2,0.3-2.5,0.4-3.7c0-0.1,0.2-0.3,0.3-0.3c2.8-1.3,5.6-2.6,8.3-4
						c1.8-0.9,3.4-2,4.9-3.3c0.4-0.3,0.5-0.8,0.5-1.3c-0.1-1.3-0.2-2.7-0.3-4c-0.2-2.7-0.4-5.4-0.2-8.2c0-0.3-0.1-0.6-0.2-0.8
						c-1.3-2.4-2.6-4.7-3.8-7.2c-0.6-1.4-0.8-2.9-1.2-4.4c1.3-0.2,2.4,0,3.4,0.5c0.6,0.3,1.3,0.6,1.9,0.9c0.2,0.1,0.5,0.1,0.7,0
						c1-0.3,2-0.5,3-0.8c3.5-1,6.9-1.9,10.4-2.9c0.6-0.2,1.2-0.4,1.8-0.7c0.9-0.3,1.8-0.4,2.7,0.1s1.9,0.8,2.8,1.4
						c1.1,0.7,2.1,1.7,2.3,3.1c0.2,1,0.2,2,0.1,3c-0.1,1-1,1.7-2,1.9c-0.1,0-0.2,0-0.3,0.1c-1.5,0.9-3.2,1.1-4.9,1.5
						c-2.1,0.4-4.3,1-6.4,1.6c-0.7,0.2-1.6,0.4-1.9,1.2c-0.3,0.9-0.4,1.9-0.7,2.9c0.3,0,0.5,0,0.7-0.1c1-0.3,1.9-0.6,2.9-0.9
						c1.5-0.5,2.9-1,4.4-1.3c1.4-0.3,2.7-0.3,4,0.5c0.7,0.4,1.5,0.6,2,1.3c1,1.5,0.3,2.7-1.3,3.1c-2.7,0.7-5.4,1.3-8,2.1
						c-1.5,0.5-3.1,1-4.7,0.8c-0.3,0-0.4,0.2-0.5,0.5c-0.2,1.2,0,1.4,1.1,1.1c1.7-0.5,3.3-1,5-1.4c0.6-0.1,1.1-0.2,1.7-0.3
						c1.5-0.1,2.7,0.4,3.8,1.4c0.8,0.7,0.8,1.6,0,2.4c-1.4,1.4-3.1,2.1-5,2.4c-0.8,0.1-1.7,0.4-2.5,0.5c-1,0.1-2,0.2-2.9,0.2
						c-0.4,0-0.7,0.2-0.9,0.6c-0.2,0.4-0.4,0.8-0.7,1.4c0.8-0.2,1.4-0.3,2-0.5c1.2-0.4,2.4-0.7,3.7-0.8c0.4,0,0.7-0.2,1.1-0.3
						c2-0.7,4-0.8,6-0.3c1,0.2,2,0.8,2.6,1.7c1.1,1.6,0.4,3.6-1.6,4.2c-1.4,0.4-2.9,0.7-4.3,1.1c-0.2,0-0.4,0.1-0.6,0.2
						c1.2,1.3,2.3,2.5,3.5,3.8c1.4-1.3,2.8-2.6,4.2-3.8c0.6-0.5,1-0.9,0.7-1.8c-0.2-0.6,0-1.3,0-2c0-1.2,0.8-2,1.6-2.7
						c1.7-1.7,3.5-3.3,5.2-5c0.4-0.4,0.9-0.8,1.4-1.2c0.5-0.5,0.5-0.9-0.2-1.1c-0.1,0-0.2-0.1-0.3-0.1c-2,0.3-3.9-0.5-5.8-0.6
						c-0.4,0-0.8-0.2-1.1-0.4c-0.2-0.1-0.3-0.3-0.4-0.5c-0.1-0.8-0.2-1.6-0.3-2.5c-0.2-1.3,0.4-2.3,1.2-3.3c1.5-1.8,3.2-3.3,5.1-4.7
						c2.6-1.9,5.1-4.1,7.4-6.4c0.6-0.6,1.1-1.2,1.7-1.8c0.2-0.3,0.4-0.2,0.7,0c1.7,1.4,3.3,2.8,4.6,4.6c0.5,0.6,1,1.3,1.4,2
						c1.2,2.2,0.7,4.3-1.3,6.1c-2,1.9-4.3,3.4-6.8,4.5C576.9,132.3,576.1,132.9,575.3,133.7z M579,145.4c-0.3-0.1-0.3-0.2-0.4-0.2
						c-1.1-0.1-2.1-0.3-3.2-0.4c-1.6-0.3-2.8,0.3-3.6,1.6c-0.9,1.4-2.2,2.2-3.9,2.1c-1,0-2-0.2-3-0.3c-0.4-0.1-0.6,0-0.8,0.3
						c-1.3,1.9-2.3,4-2.6,6.3c-0.1,0.5-0.1,1-0.1,1.6c0.9-0.6,1.7-1.2,2.6-1.9c0.4,0.5,0.8,1.1,1.2,1.6
						C569.9,152.6,574.4,149.1,579,145.4z M558.3,184.8c0-0.1,0-0.1,0-0.2c-0.9,0.1-1.4-0.5-1.9-1c-0.1-0.1-0.3-0.2-0.4-0.3
						c-0.8-0.6-0.8-0.6-1.6,0c-0.5,0.3-1,0.7-1.6,0.4c-0.3-0.1-0.5-0.3-0.8-0.4c-0.3-0.2-0.5-0.2-0.7,0.1c-0.8,1-1.5,2-2.3,3
						c-0.3,0.4-0.5,1-0.9,1.3c-1.1,1-2.1,2.2-3.6,2.7c-0.1,0-0.2,0.1-0.3,0.2c-0.7,0.7-1.4,1.3-2,2c0.5,0.2,1.1,0.1,1.7-0.2
						c2.5-1.1,5.1-2.2,7.6-3.5c2.1-1.1,4.2-2.4,6.2-3.6C558,185,558.1,184.9,558.3,184.8z M570,174.8c-0.2,0-0.3,0-0.4,0
						c-2.1,0.3-4.2,0.5-6.3,1.1c-1.3,0.4-2.6,0.8-3.9,1.1c-0.4,0.1-0.5,0.4-0.2,0.7c1.3,1.3,2.8,2.3,4.4,3c0.3,0.1,0.7,0,1-0.2
						c1.9-1.4,3.6-3.2,5-5.1C569.8,175.2,569.9,175,570,174.8z M541.7,155.3c0.5-0.1,0.9-0.1,1.2-0.1c1.4-0.3,2.8-0.7,4.2-1.1
						c0.7-0.2,1.4-0.3,2.1-0.5c0.1,0,0.3-0.3,0.3-0.4c-0.6-1-1.2-2-1.8-2.9c-0.1-0.1-0.2-0.2-0.3-0.2c-0.6,0.2-1.4,0.2-1.8,0.9
						c-0.6,0.9-1.3,1.7-2.2,2.3C542.7,153.8,542.3,154.5,541.7,155.3z"/>
				</g>
			</g>
		</g>
		<g>
			<g>
				<g>
					<path class="st0" d="M660.9,116.4c1.1,1.2,2.3,1.9,3.5,2.7c0.8,0.6,1.1,1.5,1.3,2.5c0,0.4,0.2,0.8,0.5,1c0.7,0.5,1.3,1.1,2,1.5
						c1.3,0.7,2.8,1.4,4.1,2.1c1.5,0.8,3,1.7,4.5,2.6c2.3,1.5,4.5,3,6.6,4.8c1.5,1.3,3,2.6,4.5,4c1,1,1.9,2.1,2.8,3.1
						c0.9,1,1.5,2.1,1.9,3.4c0.4,1.1,0.2,2-0.4,3c-0.6,1-1.5,1.5-2.5,1.9c-1.9,0.9-3.8,1.2-5.8,1c-0.3,0-0.6-0.1-0.9-0.2
						c-2.3-1.1-4.6-2.1-6.7-3.6c-0.5-0.4-1.1-0.7-1.7-1c-0.7-0.4-1.5-0.4-2.2-0.3c-2.5,0.1-4.6,1.3-6.7,2.6c-1.2,0.8-2.6,1.3-4,1.7
						c-2.7,0.8-5.3,1.7-7.7,3c-0.8,0.4-1.5,0.8-2.2,1.1c0,0.8,0.1,1.6,0.1,2.3c0.1,2.2,0.2,4.4,0.3,6.6c0,0.2,0.1,0.4,0.1,0.6
						c0.6,1.1,0.8,2.3,0.9,3.6c0.1,0.9-0.2,1.7-1,2.3c-0.8,0.7-1.8,1.4-2.4,2.4c-0.1,0.2-0.3,0.4-0.4,0.7c-0.6,1.8-1.8,3.2-2.8,4.7
						c-0.5,0.8-1.1,1.5-1.6,2.2c-0.3,0.4-0.2,0.5,0.2,0.5s0.8,0,1.2-0.1c1.8-0.6,3.5-1.2,5.2-1.8s3.4-1.1,5.1-1.7
						c1.1-0.4,2.1-1,3-1.8c1-0.9,1.3-2.2,1-3.5c-0.5-2-1-4-1.5-5.9c-0.3-1.2-0.7-2.4-1.1-3.7c0.2,0.1,0.5,0.1,0.7,0.2
						c2.4,1.2,5,1.8,7.6,2.1c1.1,0.1,2.2,0.2,3.3,0.4c1.2,0.2,2.2,0.9,3.3,1.6c2.3,1.5,4.2,3.5,6,5.5c0.9,1,1.6,2.1,2.4,3.2
						c0.3,0.5,0.7,0.9,1,1.4c1.3,1.6,2.1,3.6,2.8,5.5c0.4,1.2,0.8,2.4,1.1,3.6c0.3,1,0.5,2.1,0.6,3.2c0.2,1.6,0.1,3.3-0.3,4.9
						c-0.1,0.5-0.2,0.9-0.3,1.4c-0.4,1.2-1.1,2.2-2,3.1c-0.1,0.1-0.3,0.3-0.5,0.3c-0.9,0.3-1.7,0.7-2.6,0.8c-1.3,0.1-2.7,0-3.9-0.4
						c-1.2-0.3-2.2-1-3.1-1.8c-2-1.9-3.6-4.1-4.9-6.5c-0.7-1.2-1.5-2.4-2.1-3.6c-1-1.9-1.8-3.9-2.7-5.8c-0.2-0.5-0.6-1-0.9-1.5
						c-0.1-0.1-0.2-0.1-0.3-0.2c-0.1,0.1-0.2,0.2-0.2,0.3c0,1,0,2-0.1,2.9c0,1.2,0,2.4,0,3.5c0,0.7-0.3,1.1-0.7,1.6
						c-1.4,1.6-3.2,2.6-5,3.7c-2.2,1.3-4.7,1.9-7.1,2.6c-1.9,0.5-3.8,1-5.7,1.4c-1.5,0.3-3,0.4-4.6,0.7c-0.2,0-0.3,0.2-0.5,0.3
						c-0.6,0.8-1.1,1.7-1.8,2.3c-0.9,0.9-2.1,1-3.3,0.6c-1.9-0.6-3.6-1.7-5-3.1c-1.2-1.3-2.4-2.6-3.6-3.9c-0.3-0.3-0.6-0.7-0.8-1.1
						c-0.5-0.8-1-1.7-1.7-2.4s-0.8-1.6-0.7-2.5c0-0.2,0.1-0.3,0.2-0.4c0.3-0.4,0.6-0.8,0.9-1.2c0.1-0.1,0.1-0.4,0.1-0.5
						c-0.4-1.1-0.2-2.1,0.4-3.1c0.7-1.2,1.7-1.9,3-2.2c0.9-0.2,1.6-0.8,2.2-1.3c1.6-1.3,2.8-2.9,4-4.6c2.5-3.4,4.3-7.2,6.5-10.8
						c0.3-0.4,0.5-0.9,0.6-1.3c0.6-1.4,1.7-2.4,2.8-3.5c0.8-0.9,1.7-1.7,2.8-2.3c0.4-0.2,0.8-0.2,1.2-0.3c0.3-0.1,0.7-0.2,1-0.3
						c1.4-0.8,2.7-1.7,4-2.6c1.2-0.7,2.4-1.4,3.6-2.1c0.9-0.5,1.8-1,2.7-1.4c1.6-0.8,3-1.9,4.3-3.2c0.9-0.9,1.8-1.7,2.6-2.7
						c0.4-0.4,0.7-1,0.9-1.5c0.1-0.2,0-0.5-0.2-0.7c-0.3-0.4-0.7-0.8-1-1.2c-2.2-3.5-4.1-7.1-5.4-11c-0.4-1.1-0.6-2.2-0.9-3.3
						c-0.1-0.3,0.1-0.6,0.1-0.9c0.2-0.7,0.5-1.3,0.8-2c0.1-0.3,0.2-0.6,0.3-1c0.2-0.8,0.3-1.6,0.5-2.4
						C660.8,116.8,660.8,116.7,660.9,116.4z"/>
				</g>
				<g>
					<path class="st0" d="M607.5,148.5c0.7-0.1,1.4-0.1,2-0.2c0.2,0,0.4-0.1,0.6-0.2c3-1.9,6.1-3.6,8.9-5.8c0.5-0.4,0.9-0.8,1.3-1.3
						c2.3-2.9,4.6-5.9,6.9-8.8c0.9-1.1,1.4-2.4,2-3.7c0.7-1.6,1.5-3.1,2.4-4.6c0.2-0.5,0.3-0.9,0.2-1.4c-0.4-1.2-0.2-2.3,0-3.4
						c0.2-0.9,0.7-1.7,1.4-2.3c0.3-0.3,0.6-0.2,0.8,0c0.7,0.6,1.3,1.3,2,1.9c0.7,0.7,1.5,1.4,2.2,2c1.7,1.5,3.5,3.1,5.2,4.6
						c0.9,0.8,1.6,1.8,2.3,2.9c0.9,1.5,1.5,3.2,2.2,4.8c0.4,1,0.6,2.2,0.5,3.3c0,1.1-0.5,1.5-1.5,1.7c-1.2,0.2-2.4,0.4-3.6,0.7
						c-0.2,0.1-0.5,0.3-0.6,0.5c-0.6,1.2-1.5,2.2-2.5,3.1c-0.3,0.3-0.7,0.7-1,1c-1,1.1-2,2.2-2.9,3.3c-0.9,1-1.8,2-3,2.6
						c-0.9,0.4-1.9,0.8-2.9,1c-2.3,0.5-4.5,1-6.8,1.5c-1.2,0.3-2.3,0.6-3.4,0.9c-0.9,0.3-1.8,0.6-2.7,0.9c-1.2,0.4-2.3,0.4-3.4-0.3
						c-1.3-0.7-2.5-1.4-3.7-2.3c-0.7-0.6-1.6-1-2.3-1.8C607.7,149.1,607.6,148.8,607.5,148.5z"/>
				</g>
			</g>
		</g>
		<g>
			<g>
				<g>
					<path class="st0" d="M697.6,142.7c0.9,0.3,1.7,0.2,2.5,0.1c0.1,0,0.2,0,0.2,0.1c1.4,0.6,2.8,0.5,4.2,0.2
						c2.8-0.6,5.6-1.3,8.4-1.9c1.9-0.4,3.9-0.8,5.8-1.2c1.2-0.2,2.5-0.3,3.7-0.5c3.3-0.5,6.6-1.2,9.8-2c1.2-0.3,2.5-0.4,3.8-0.6
						c1.5-0.3,3-0.6,4.5-0.9c0.7-0.1,1.4-0.2,2.1-0.3c1.3-0.2,2.6-0.5,3.9-0.7c1.7-0.3,3.4-0.5,5.1-0.7c1.9-0.2,3.8-0.3,5.6-0.6
						c2.8-0.4,5.6-0.7,8.4-1.4c0.6-0.1,1.2-0.3,1.8-0.3s1.2,0.1,1.4,0.9c0,0,0,0.1,0.1,0.1h0.1c0-0.3,0.1-0.5,0.1-0.8
						c0.1-1.4,0.2-2.8,0.3-4.2c0-0.2,0-0.5-0.1-0.7c-0.3-0.7-0.7-1.4-1.1-2.1c-0.2-0.3-0.4-0.5-0.8-0.5c-0.4,0-0.8,0-1.1,0
						c-1.1,0-2.3-0.2-3.4-0.1c-1.6,0-3.1,0.2-4.7,0.2c-1.1,0.1-2.1,0.1-3.2,0.3c-2.3,0.3-4.6,0.6-6.8,1c-1.1,0.2-2.3,0.5-3.4,0.9
						c-1.2,0.4-2.4,1-3.6,1.4c-1.6,0.5-3,0.1-4.2-1c-1.5-1.3-2.8-2.9-4.1-4.5c-1-1.2-2.3-2.2-3.5-3.3c-0.4-0.4-0.9-0.9-1.2-1.4
						c-0.4-0.5-0.2-1.1-0.1-1.6c0-0.2,0.3-0.3,0.4-0.4c1.2-0.1,2.4-0.7,3.5-1c1.5-0.4,3-0.9,4.5-1.3c1.4-0.3,2.9-0.5,4.4-0.7
						c0.5-0.1,1-0.2,1.5-0.2c2.4-0.2,4.7-0.5,7.1-0.7c1.5-0.1,3-0.2,4.6-0.3c2.3-0.1,4.6-0.2,6.9-0.2c0.6,0,1.3,0.1,1.9,0.2
						c1.1,0.2,2.3,0.4,3.4,0.6c0.2,0,0.4,0,0.5-0.1c0.6-0.5,1.3-0.9,2-1.1c0.5-0.1,0.9-0.2,1.4-0.3c0.3,0,0.5,0.2,0.8,0.3
						c0.3,0.1,0.5,0.3,0.8,0.4c1,0.2,1.7,0.9,2.2,1.8s0.9,1.9,1.3,2.9c0.5,1.2,1.3,2.2,2.4,3c2,1.6,3.5,3.6,4.7,5.9
						c0.4,0.7,0.7,1.5,1,2.3c0.6,1.7-0.8,4.2-2.1,4.7c-0.7,0.3-1,0.8-1.2,1.4c-0.4,1.1-0.5,2.4-0.6,3.5c0,1.1,0.2,2.2,0.3,3.3
						c0,0.4,0,0.9,0,1.3c0,0.4-0.1,0.7-0.1,1.1c0.1,1.8,0.1,3.7,0.2,5.5c0,2.1,0,4.2,0.1,6.3c0.1,2.2,0.3,4.4,0.5,6.6
						c0.2,2.8,0.5,5.6,0.7,8.4c0.1,1.8,0.2,3.6,0.2,5.4c0,1,0.1,2,0.1,3c0,2.8,0,5.6,0,8.4c0,0.8,0.1,1.6,0,2.4
						c0,1.2-0.3,2.3-0.8,3.4c-0.5,1.3-0.8,2.8-1.6,4c-0.9,1.2-1.8,2.5-2.7,3.7c-0.5,0.6-1.1,1-1.9,1.2c-0.9,0.2-1.9,0.3-2.8,0.5
						c-1.1,0.2-2.1-0.2-3.2-0.5c-0.7-0.2-1.3-0.5-2-0.7c-0.8-0.2-1.4-0.8-1.9-1.5c-0.9-1.3-2.1-2.5-3.5-3.3
						c-0.9-0.5-1.8-0.8-2.8-0.8c-0.4,0-0.6-0.2-0.9-0.4c-0.6-0.5-1.2-1.1-2-1.5c-1.4-0.8-2.6-1.9-3.5-3.3c-1-1.5-2-3-3.1-4.5
						c-0.5-0.7-1.2-1.2-1.8-1.8c-0.1-0.1-0.4-0.1-0.6,0c-1.4,0.4-2.8,0.9-4.2,1.2c-2.2,0.6-4.4,1.1-6.5,1.7c-0.5,0.1-1,0.2-1.5,0.3
						c-0.8,0.1-1.5,0-2.2-0.2c-0.2-0.1-0.4-0.2-0.6-0.4c-0.3-0.3-0.6-0.6-0.8-0.9c-0.8-1-1.7-1.9-2.5-2.9c-0.3-0.4-0.6-0.9-1-1.3
						c-0.2-0.2-0.2-0.5,0.1-0.6c0.3-0.2,0.3-0.4,0.1-0.6c-0.2-0.3-0.5-0.7-0.6-1c-0.2-0.7-0.6-1.3-1.1-1.8c-0.6-0.7-1.3-1.4-1.9-2.2
						c-0.6-0.8-1.2-1.6-1.7-2.4c-0.4-0.5-0.7-1-1.1-1.6c-0.1-0.1-0.2-0.3-0.2-0.5c0-0.3-0.1-0.6-0.3-0.9c-1-1.6-2.1-3.3-2.5-5.2
						c-0.2-1.1-0.3-2.3-0.3-3.4c0-0.4,0.1-0.8,0.5-1.1c0.1-0.1,0.2-0.2,0.2-0.4c0.1-0.3,0.2-0.6,0.3-0.9c0.2-0.4,0.6-0.6,1-0.5
						c0.8,0.1,1.5-0.2,2.2-0.6c2.5-1.2,4.7-2.8,6.9-4.6c0.6-0.5,1.2-0.9,1.7-1.3c0.1-0.1,0.3-0.2,0.4-0.3c0.1-0.1,0.1-0.2,0.1-0.3
						c-0.1,0-0.2-0.1-0.3-0.1s-0.2,0.1-0.3,0.1c-1.9,1-4,1.5-6.1,1.9c-1.8,0.3-3.6,0.6-5.5,0.9c-1.6,0.3-3.2,0.7-4.9,0.6
						c-1-0.1-2.1-0.3-3.1-0.6c-1.7-0.4-3.3-1.2-4.8-2.1c-1.6-1-2.8-2.3-3.8-3.9c-0.1-0.2-0.3-0.3-0.6-0.5c-1.6-1-3-2.1-3.9-3.8
						c-0.1-0.1-0.1-0.2-0.2-0.3C697.6,142.9,697.6,142.8,697.6,142.7z M747.6,183c0,0.1,0,0.1-0.1,0.2c0.4,0.2,0.7,0.5,1.1,0.7
						c2,0.9,4,1.7,6.1,2.6c1.3,0.6,2.8,0.7,4.2,0.7c1.2,0,2.5-0.2,3.7-0.2c2,0,3.9-0.4,5.5-1.6c0.4-0.2,0.6-0.5,0.6-0.9
						c0.3-1.5,0.3-3.1,0.2-4.6c0-0.6-0.1-1.2,0-1.8c0.1-2.1,0.2-4.2,0.3-6.2c0.1-2.2,0.1-4.4,0.1-6.6c0-2.9-0.2-5.7-0.3-8.6
						c-0.1-3.2-0.1-6.3-0.1-9.5c0-0.1,0-0.2,0-0.4c0-0.6,0.1-1.1,0.1-1.7c0-0.1-0.1-0.3-0.2-0.3c-1.2-0.4-2.4-0.8-3.6-0.7
						c-1.6,0.1-3.1,0.2-4.7,0.4c-1,0.1-2,0.1-2.9,0.4c-2.3,0.8-4.6,1.6-6.9,2.5c-1.2,0.5-2.3,1.1-3.5,1.7c-2.1,1-4.4,1.7-6.4,2.9
						c-0.3,0.2-0.6,0.4-0.9,0.6c0,0,0,0.1,0.1,0.1s0.3,0,0.4-0.1c1.6-0.5,3.4-0.3,5-0.4c0.1,0,0.2,0,0.2,0c1.1,0.2,2.2,0.4,3.3,0.6
						c0.6,0.1,1.1,0.1,1.5-0.4c0.2-0.2,0.5-0.3,0.8-0.3c0.4-0.1,0.8,0,1.2,0c0.2,0,0.4,0,0.5,0.1c0.6,0.4,1.2,0.8,1.8,1.2
						c0.5,0.4,0.9,0.7,1.5,0.9c0.5,0.1,0.9,0.4,1.3,0.9c1,1.2,2,2.3,2.9,3.5c0.7,0.9,1.4,1.7,2,2.6c0.3,0.5,0.5,1,0.3,1.5
						c-0.1,0.5-0.3,1-0.4,1.6c-0.3,1.1-0.9,2-1.9,2.7c-0.8,0.5-1.6,0.9-2.4,1.3c-0.5,0.3-0.8,0.6-1.1,1.1c-0.4,0.7-0.8,1.4-1.3,2.1
						c-1,1.4-2,2.8-3.1,4.2c-0.2,0.2-0.2,0.5-0.1,0.8c0.3,1.1,0.5,2.2,0.7,3.3c0.1,0.4,0,0.7-0.3,0.9c-0.8,0.5-1.5,1.1-2.3,1.5
						c-0.4,0.2-0.9,0.3-1.3,0.4C748.8,182.9,748.2,182.9,747.6,183z M748.1,162.9c-0.2,0-0.4,0-0.5,0c-1.5,0-3,0.4-4.5,0.6
						c-1.3,0.2-2.5,0.6-3.8,0.9c-2,0.5-4,1-5.8,2.2c-0.1,0.1-0.2,0.1-0.3,0.1c-1.5,0.7-2.6,1.8-3.6,3.1c-0.2,0.3-0.2,0.5,0,0.7
						c0.5,0.6,1,1.1,1.4,1.7c0.3,0.4,0.6,0.4,1.1,0.3c1.7-0.6,3.4-1.2,5.2-1.5c0.6-0.1,1.3-0.2,1.9-0.3c0.8-0.1,1.6-0.1,2.4-0.2
						c0.2,0,0.5-0.2,0.6-0.3c0.8-0.9,1.5-1.9,2.3-2.8c0.5-0.6,1.1-1.2,1.6-1.8C747,164.8,747.6,163.9,748.1,162.9z"/>
				</g>
			</g>
		</g>
		<g>
			<g>
				<g>
					<path class="st0" d="M386.5,185.3c0.8,0.1,1.4,0.1,2,0.1c3.3,0.1,6.6,0.6,9.8,1.1c3.9,0.7,7.7,1.3,11.6,2
						c2.2,0.4,4.4-0.1,6.5-0.7c0.5-0.1,1-0.6,1.5-1.1c0.4-0.4,0.6-0.9,1-1.4c0.3,1,0.1,1.8,0,2.7c-0.2,1-0.6,1.9-1.2,2.7
						c-1.7,2.5-3.8,4.3-6.8,5c-2,0.4-4,1-6,1.3c-2.8,0.5-5.6,0.9-8.4,1.4c-1.1,0.2-2.2,0.5-3.3,0.9c-1.2,0.4-2.4,0.5-3.7,0.2
						c-3.6-0.8-7.2-1.6-10.8-2.5c-2.8-0.7-5.5-1.7-8.3-2.6c-2.1-0.7-4.3-1.3-6.4-2.1c-2.8-1.1-5.5-2.5-8.2-3.7
						c-2.3-1.1-4.5-2.2-7-2.7c-1.8-0.4-3.6-0.5-5.4-0.7c-2.3-0.2-4.6,0.1-6.9,0.5c-2,0.3-3.7,1.1-5.3,2.3c-1.6,1.2-3.4,1.3-5.2,0.8
						c-1.2-0.3-2.5-0.7-3.7-1.1c-1.6-0.6-3.1-1.2-4.6-1.8c-0.2-0.1-0.5-0.2-0.7-0.4c0-0.1,0-0.2,0.1-0.3c0.8-1.8,1.2-3.8,1.7-5.7
						c0.1-0.3,0.2-0.6,0.6-0.6c2.7,0.2,5.1-0.7,7.5-1.7c4.6-1.8,9.2-3.7,13.7-5.6c0.6-0.3,1.2-0.7,1.8-1c0.3-0.2,0.4-0.5,0-0.8
						c-2.3-1.9-3.4-4.5-3.6-7.4c-0.1-1.8-0.2-3.5-0.3-5.3c0-0.2-0.2-0.5-0.4-0.6c-2.5-1.6-4.7-3.4-6.1-6.1c-1-1.8-1.8-3.7-2.6-5.6
						c-0.4-1-0.3-2.1-0.1-3.1c0.5-2,1.6-3.8,2.3-5.8c1-2.6,1.9-5.2,2.8-7.8c0.1-0.2,0-0.5-0.1-0.7c-1.8-2-3-4.2-3.9-6.7
						c-0.4-1.2-0.8-2.4-1.1-3.6c-0.2-0.8-0.4-1.7-0.5-2.6c0.6,0.1,1.2,0.3,1.8,0.4c2.7,0.5,5.2,1.5,7.6,2.8c2.9,1.5,5.3,3.7,7.1,6.3
						c1.3,1.8,1.9,4.1,1.8,6.4c-0.1,1.7-0.5,3.3-1.5,4.6c-0.3,0.5-0.7,0.9-1.1,1.2c-0.6,0.5-1.4,0.4-2.1,0.1
						c-1.3-0.7-2.6-1.3-3.9-2.1c-0.9-0.6-1.6-0.7-2.6-0.2c-0.2,0.1-0.6,0.2-0.8,0.2c-0.5-0.1-0.7,0.1-0.9,0.4
						c-0.6,0.9-1.2,1.7-1.9,2.6c-0.5,0.6-1.1,1.2-1.5,1.9c-0.5,1-0.9,2.1-1.2,3.2c-0.1,0.5,0.2,1.2,0.5,1.7c1.1,2.1,3.1,2.6,5.3,2.9
						c4.3,0.7,8.5,1.7,12.1,4.3c0.9,0.6,1.7,1.5,2.4,2.4c0.4,0.5,0.5,1.3,0.6,2c0.1,0.9-0.4,1.4-1.1,1.7c-0.6,0.3-1.3,0.4-1.9,0.6
						c-1.7,0.4-2.7,1.5-3.6,2.9c-0.3,0.4,0,1.2,0.5,1.6c1.6,1.2,3.3,2.1,5.2,2.7c2,0.6,3.8,1.5,4.6,3.6c0.3,0.6,0.6,1.3,0.7,2
						c0.3,1.7-0.7,2.9-2,3.8c-1.4,1.1-3.1,1.8-4.9,2c-2.3,0.3-4.5,1.1-6.8,2.1c0.3,0.1,0.4,0.1,0.6,0.1c1.5,0.1,3.1,0.1,4.6,0.4
						c1.7,0.3,3.4,0.8,5.1,1.2c2.7,0.7,5.3,1.3,8,2c1.5,0.4,3.1,0.7,4.7,1c0.1,0,0.3,0,0.5,0c-0.4-0.8-0.8-1.5-1.3-2.3
						c-0.1-0.2-0.4-0.3-0.6-0.4c-0.5-0.3-1.1-0.5-1.5-0.9c-1.8-1.5-2.8-3.5-3.1-5.9c-0.1-1.1-0.4-2.1-0.5-3.2
						c-0.3-3.7,0.4-7.2,1-10.8c0.4-2.1,0.6-4.2,0.4-6.3c-0.1-0.7-0.4-1.5-0.7-2.2c-0.3-0.7-0.7-1.4-1-2.2c1.5-0.2,2.7-0.8,3.8-1.5
						c0.2-0.1,0.4-0.4,0.5-0.6c0.7-0.9,1.4-1.8,2.2-2.7c0.9-1.1,1.5-2.4,2-4c-1,0.3-1.8,0.6-2.7,0.9c-1.2,0.5-2.4,1-3.7,1.4
						c-1.6,0.5-3.1,0.5-4.7-0.1c-1.9-0.7-3.6-1.7-5.3-2.7c-0.4-0.2-0.7-0.5-0.9-0.8c-0.3-0.5-0.1-1,0.3-1.5c0.8-0.9,1.4-1.9,2.2-2.8
						c0.3-0.3,0.6-0.7,0.9-1c0.4-0.5,1-0.7,1.6-0.6c0.3,0,0.6,0,0.9-0.1c1.5-0.4,3-0.8,4.5-1.3c0.9-0.3,1.7-0.7,2.6-1
						c-0.5-0.7-0.9-1.6-1.5-2.2c-1.9-2-3.2-4.3-4.5-6.6c-1.3-2.2-2.3-4.6-3.1-7c-0.6-1.9-1-3.9-1.5-5.9c0-0.1,0-0.2,0-0.4
						c0.2,0.1,0.4,0.1,0.5,0.2c1,0.5,2,1,3,1.6c0.8,0.5,1.5,1,2.3,1.5c0.3,0.2,0.7,0.3,0.9,0.2c2-0.4,4-1,6.1-1.4
						c1.5-0.3,3-0.5,4.5-0.6c0.5-0.1,1,0,1.6-0.1c0.8,0,1.5-0.2,2.2-0.6c0.8-0.5,1.7-0.8,2.7-1.3c-0.8,1.2-1.5,2.3-2.1,3.4
						c-0.4,0.7-0.7,1.4-0.9,2.1c-0.1,0.3-0.3,0.5-0.6,0.6c-1.8,0.5-3.4,1.4-4.4,3c-0.6,0.9-0.6,1.8-0.8,2.8c-0.5,3,0,6,1.2,8.8
						c0.1,0.3,0.3,0.4,0.6,0.3c1-0.3,2.1-0.6,3.1-0.8c0.5-0.1,1-0.3,1.5-0.4s0.7-0.3,0.5-0.9c-0.5-1.7-0.3-3.3,0.7-4.9
						c2.4-3.6,4.8-7.3,7.1-10.9c0.8-1.3,1.4-2.7,1.3-4.3c0-0.3-0.1-0.7-0.2-1c0.7,0.2,1.6,0.4,2.3,0.8c1.7,0.7,3.3,1.7,4.5,3.2
						c0.6,0.7,1.3,1.3,1.9,2c0.4,0.5,0.8,1.1,1,1.7c0.4,1,0.3,2-0.3,3c-1.3,2.1-2.7,4-4.6,5.6c-0.4,0.3-0.9,0.6-1.3,1
						c-0.7,0.6-1.4,1.2-2.1,1.8c0,0.1,0.1,0.1,0.1,0.2c0.4-0.1,0.9-0.1,1.3-0.3c1.2-0.3,2.4-0.7,3.5-1c0.9-0.3,1.8-0.6,2.6-0.9
						c0.5-0.2,1.1-0.1,1.6,0.2c0.8,0.5,1.7,1,2.6,1.4c1.6,0.7,2.8,1.9,3.7,3.4c0.7,1.1,0.8,2.3,0,3.4c-0.6,0.8-1.2,1.7-1.8,2.5
						c-0.4,0.5-0.9,0.5-1.4,0.3c-0.1,0-0.2,0-0.3-0.1c-1.4-1-2.9-0.6-4.3-0.4c-1.5,0.3-2.9,0.7-4.3,1.1c-1.6,0.5-3.2,1-4.8,1.5
						c-0.6,0.2-1.2,0.2-1.8,0.4c-0.2,0.1-0.4,0.3-0.5,0.5v0.1c-0.7,1.1-1,2.3-1,3.6c0,0.4-0.1,0.7,0.2,0.9c0.3,0.3,0.7,0.2,1,0
						c0.7-0.3,1.4-0.6,2.1-0.8c0.2-0.1,0.6,0,0.8,0.2c0.7,0.7,1.3,1.4,2,2.1c0.2,0.2,0.5,0.5,0.7,0.7c1.3,1.2,2.6,2.3,3.8,3.5
						c1.1,1,1.5,2.4,1.5,3.9c0,0.6,0.2,1.3,0.2,1.9c0.1,1-0.1,1.9-0.6,2.7c-0.1,0.3-0.3,0.5-0.5,0.7c-0.6,0.5-0.8,1.2-0.6,1.9
						c0.7,2.4,0.4,4.9,0.3,7.4c-0.2,2.3,0.1,4.5,0.4,6.7c0.1,1,0.1,1.9,0,2.9c-0.1,0.6-0.5,1.1-0.8,1.6c-0.2,0.3-0.4,0.6-0.2,0.9
						c0.9,1.4,0.2,2.6-0.4,3.9C387.6,183.4,387,184.3,386.5,185.3z M375.6,155.7v0.1c0.4,0.1,0.9,0.1,1.3,0.2
						c0.4,0.1,0.6-0.1,0.6-0.5c0-0.9,0-1.8,0-2.7c0-0.4-0.2-0.6-0.6-0.6c-0.7,0.1-1.4,0.2-2.1,0.4c-1.7,0.4-3.3,0.9-5,1.4
						c-0.6,0.2-1.1,0.4-1.6,0.7c-0.2,0.2-0.4,0.5-0.5,0.8c-0.1,0.6-0.1,1.3-0.2,1.9c-0.1,0.9,0.2,1.1,1,0.7c1.4-0.5,2.7-1.1,4.1-1.6
						C373.7,156.3,374.6,156,375.6,155.7z M366.4,175.8c0.2,0,0.4,0,0.7-0.1c1.5-0.2,3.1-0.5,4.6-0.7c0.6-0.1,1.1-0.3,1.7-0.4
						c1-0.3,2-0.5,3-0.3c0.5,0.1,0.7-0.1,0.7-0.5c0-0.6,0-1.1,0-1.7c0-0.4-0.2-0.5-0.5-0.5c-0.6,0.1-1.2,0.1-1.7,0.2
						c-1.8,0.4-3.6,0.4-5.3-0.3c-0.7-0.3-1.5-0.7-2.3-1.2C366.9,172.1,366.7,173.9,366.4,175.8z M367.3,164.7
						C367.3,164.7,367.2,164.7,367.3,164.7c-0.1,0.7-0.1,1.4-0.1,2.2c0,0.4,0.1,0.7,0.6,0.5c1-0.3,1.9-0.7,2.9-1
						c0.7-0.2,1.5-0.6,2.2-0.7c1.3-0.1,2.7-0.1,4,0.5c0.4,0.2,0.7,0,0.7-0.4c0-0.8,0-1.6,0-2.4c0-0.2-0.3-0.5-0.5-0.5
						c-1.1-0.1-2.2-0.1-3.3,0.4c-1.3,0.7-2.7,0.8-4-0.1c-0.5-0.3-0.9-0.7-1.4-1c-0.2-0.1-0.6-0.3-0.6-0.2c-0.2,0.2-0.3,0.5-0.3,0.7
						C367.3,163.4,367.3,164,367.3,164.7z M381.3,184.8c-0.4-0.7-0.8-1.4-1.1-2c-0.2-0.4-0.6-0.6-1.1-0.5c-1.4,0.2-2.7,0.5-4.1,0.7
						c-2.1,0.3-4.2,0.6-6.2,0.8c-0.3,0-0.5,0.1-0.8,0.2v0.1C372.5,184.4,376.8,184.6,381.3,184.8z"/>
				</g>
			</g>
		</g>
	</g>
</g>
<g id="BARB_RED" class="st1">
	<text transform="matrix(1 0 0 1 212.9191 332.2012)" class="st2 st3 st4 st5">BARBER &amp; CO.</text>
	<g class="st6">
		<rect x="98.6" y="567.2" class="st7" width="907.8" height="142.5"/>
		<text transform="matrix(1 0 0 1 98.6163 623.0076)" class="st3 st11" style="fill:#EE1C4E; font-size:109px;">TOO FAR EAST</text>
	</g>
</g>
<g id="BARB_thick">
	<g>
		<path class="st0" d="M252.8,319.8c1,1.1,1.5,2.7,1.5,4.5c0,3.1-1.3,5.3-3.8,6.7c-2.5,1.4-6.3,2.2-11.3,2.2c-2.2,0-5.3-0.1-9.3-0.2
			l0.3-9l-0.3-21.4l12.2-0.1c3.4,0,6,0.7,7.9,2s2.9,3.2,2.9,5.7c0,1.6-0.4,3-1.3,4.2c-0.8,1.2-2,2.1-3.6,2.8
			C250.2,317.9,251.8,318.7,252.8,319.8z M245,327c1-0.7,1.5-1.7,1.5-3c0-1-0.3-1.7-1-2.3c-0.7-0.6-1.7-1-3.1-1.3l-5.2,0.1l-0.1,2.8
			l0.1,4.5c1.3,0.1,2.4,0.2,3.4,0.2C242.5,328,244,327.7,245,327z M243.8,308.7c-0.9-0.5-2.4-0.7-4.5-0.7h-1.9l-0.1,7.2l4.4,0.1
			c1.2-0.3,2-0.7,2.6-1.4c0.6-0.6,0.8-1.5,0.8-2.6C245.1,310.1,244.6,309.2,243.8,308.7z"/>
		<path class="st0" d="M315,333.1h-7.6l-0.8-4.4l-0.5-1.7l-6.1-0.1l-5.4,0.1l-0.4,1.3l-0.9,4.8h-7.4l10.7-30.4h9L315,333.1z
			 M304.4,321.2l-3.4-11.6h-0.5l-4,11.6l3.9,0.1L304.4,321.2z"/>
		<path class="st0" d="M372.3,331.3l-0.1,0.8c-2.5,0.8-4.9,1.2-7.3,1.4l-1.1-0.7c-2.2-3.9-4-7.1-5.2-9.6H354v0.1l0.3,9.8h-7.6l0.3-9
			l-0.3-21.4l13.1-0.1c3.4,0,6.1,0.8,7.9,2.4c1.9,1.6,2.8,3.8,2.8,6.8c0,1.9-0.5,3.6-1.5,5.3c-1,1.6-2.4,3-4.2,4.1
			C367.4,325,370,328.4,372.3,331.3z M354,317.5l4.5,0.2c1.4-0.4,2.4-1.1,3-1.9s1-1.9,1-3.3s-0.4-2.5-1.3-3.2
			c-0.8-0.7-2.2-1.1-4-1.2l-3.1,0.1L354,317.5z"/>
		<path class="st0" d="M428.5,319.8c1,1.1,1.5,2.7,1.5,4.5c0,3.1-1.3,5.3-3.8,6.7c-2.5,1.4-6.3,2.2-11.3,2.2c-2.2,0-5.3-0.1-9.3-0.2
			l0.3-9l-0.3-21.4l12.2-0.1c3.4,0,6,0.7,7.9,2s2.9,3.2,2.9,5.7c0,1.6-0.4,3-1.3,4.2c-0.8,1.2-2,2.1-3.6,2.8
			C425.9,317.9,427.5,318.7,428.5,319.8z M420.8,327c1-0.7,1.5-1.7,1.5-3c0-1-0.3-1.7-1-2.3c-0.7-0.6-1.7-1-3.1-1.3l-5.2,0.1
			l-0.1,2.8l0.1,4.5c1.3,0.1,2.4,0.2,3.4,0.2C418.3,328,419.8,327.7,420.8,327z M419.5,308.7c-0.9-0.5-2.4-0.7-4.5-0.7h-1.9
			l-0.1,7.2l4.4,0.1c1.2-0.3,2-0.7,2.6-1.4c0.6-0.6,0.8-1.5,0.8-2.6C420.8,310.1,420.4,309.2,419.5,308.7z"/>
		<path class="st0" d="M484.8,326.9l0.5,0.5l-0.5,5.7H464l0.3-9l-0.3-21.4h21l0.4,0.6l-0.5,5.6l-7.8-0.3h-5.7l-0.1,6.1l5.4,0.1
			l5.2-0.2l0.4,0.5l-0.5,5.7l-5.7-0.2h-5l-0.1,2.6l0.1,3.9h5.3L484.8,326.9z"/>
		<path class="st0" d="M548,331.3l-0.1,0.8c-2.5,0.8-4.9,1.2-7.3,1.4l-1.1-0.7c-2.2-3.9-4-7.1-5.2-9.6h-4.6v0.1l0.3,9.8h-7.6l0.3-9
			l-0.3-21.4l13.1-0.1c3.4,0,6.1,0.8,7.9,2.4c1.9,1.6,2.8,3.8,2.8,6.8c0,1.9-0.5,3.6-1.5,5.3c-1,1.6-2.4,3-4.2,4.1
			C543.1,325,545.6,328.4,548,331.3z M529.7,317.5l4.5,0.2c1.4-0.4,2.4-1.1,3-1.9s1-1.9,1-3.3s-0.4-2.5-1.3-3.2
			c-0.8-0.7-2.2-1.1-4-1.2l-3.1,0.1L529.7,317.5z"/>
		<path class="st0" d="M710.1,303.8l-1.3,6.4l-0.6,0.3c-0.9-0.6-2-1.1-3.3-1.5c-1.2-0.4-2.5-0.5-3.7-0.5c-2.4,0-4.3,0.7-5.5,2.1
			s-1.8,3.7-1.8,6.7c0,6.6,2.5,9.9,7.6,9.9c1.2,0,2.4-0.2,3.7-0.5s2.4-0.8,3.5-1.3l0.7,0.4l-0.6,6.3c-2.4,1-5,1.4-7.8,1.4
			c-4.9,0-8.7-1.3-11.3-4c-2.6-2.6-3.9-6.5-3.9-11.4c0-5.1,1.4-9,4.1-11.7c2.7-2.8,6.6-4.2,11.6-4.2
			C704.7,302.2,707.5,302.8,710.1,303.8z"/>
		<path class="st0" d="M766.3,306.1c2.5,2.6,3.7,6.3,3.7,11.1c0,5.2-1.4,9.3-4.1,12.1c-2.7,2.9-6.5,4.3-11.5,4.3
			c-4.5,0-8-1.3-10.5-4s-3.7-6.4-3.7-11.3c0-5.1,1.3-9.1,4-11.9s6.5-4.2,11.4-4.2C760.3,302.2,763.8,303.5,766.3,306.1z
			 M749.7,310.3c-1.1,1.3-1.6,3.7-1.6,7c0,2.6,0.2,4.7,0.7,6.2s1.2,2.6,2.2,3.2s2.4,1,4.1,1c2.5,0,4.3-0.7,5.4-2
			c1.1-1.3,1.6-3.7,1.6-7c0-2.6-0.2-4.7-0.7-6.2s-1.2-2.6-2.2-3.2s-2.4-1-4.2-1C752.6,308.3,750.8,309,749.7,310.3z"/>
		<g>
			<path class="st7" d="M612.7,320.7c-1.5,1.2-2.3,2.4-2.3,3.9c0,1.3,0.4,2.3,1.2,3c0.8,0.8,1.9,1.2,3.2,1.2c1.4,0,2.8-0.4,4.1-1.3
				l-5.9-7L612.7,320.7z"/>
			<path class="st7" d="M616.2,312.5l0.6-0.5c0.7-0.7,1.1-1.5,1.1-2.5c0-0.7-0.2-1.2-0.7-1.7s-1.1-0.7-1.9-0.7c-0.8,0-1.5,0.3-2,0.8
				c-0.5,0.6-0.7,1.3-0.7,2.2c0,1,0.6,2.2,1.8,3.7L616.2,312.5z"/>
			<path class="st0" d="M629.4,331.7l-3.5-4.1c1.6-2.4,2.4-5.4,2.5-9c0-0.1-0.1-0.2-0.1-0.3c-0.1-0.1-0.2-0.1-0.3-0.1l-4.4,0.4
				c-0.2,0-0.4,0.2-0.4,0.4c0,1.5-0.3,2.9-0.9,4.2l-5-5.9l1.6-1.2c1.5-1.1,2.5-2.1,3.2-3.2s1-2.3,1-3.6c0-2-0.7-3.7-2.2-5
				s-3.3-2-5.6-2c-2.5,0-4.5,0.7-6,2.1s-2.3,3.4-2.3,5.8c0,1,0.2,2.1,0.7,3.1c0.4,1,1.2,2.1,2.2,3.4c-2.1,1.5-3.4,2.8-4.2,3.9
				c-0.8,1.2-1.2,2.6-1.2,4c0,2.6,0.9,4.8,2.8,6.4c1.8,1.6,4.3,2.4,7.3,2.4c2.9,0,5.4-0.7,7.5-2.2l1.3,1.6c0.1,0.1,0.2,0.1,0.3,0.2
				c0.7,0.1,1.4,0.1,2.1,0.1c1,0,2-0.1,3-0.2c0.2,0,0.3-0.1,0.4-0.3l0.2-0.6C629.5,331.9,629.5,331.8,629.4,331.7z M628.9,332.5
				c-1.7,0.2-3.4,0.3-5,0.1l-1.6-1.9c-2.1,1.6-4.6,2.4-7.6,2.4c-2.9,0-5.3-0.8-7-2.3c-1.8-1.6-2.6-3.6-2.6-6.1
				c0-1.4,0.4-2.6,1.1-3.8c0.7-1.1,2.2-2.5,4.4-4.1c-1.2-1.5-2-2.7-2.4-3.7c-0.5-1-0.7-2-0.7-3c0-2.3,0.7-4.2,2.1-5.5
				c1.4-1.3,3.3-2,5.7-2c2.2,0,3.9,0.6,5.3,1.9c1.4,1.3,2.1,2.8,2.1,4.7c0,1.2-0.3,2.4-0.9,3.4c-0.6,1-1.6,2.1-3.1,3.1l-2,1.5
				l5.7,6.8c0.8-1.5,1.2-3.2,1.2-5l4.3-0.4c0,3.6-0.9,6.6-2.6,9l3.7,4.4L628.9,332.5z"/>
			<path class="st0" d="M616.5,312.8l0.6-0.5c0.8-0.7,1.3-1.7,1.3-2.9c0-0.8-0.3-1.4-0.9-2s-1.3-0.8-2.2-0.8c-1,0-1.7,0.3-2.3,1
				s-0.9,1.5-0.9,2.5c0,1.1,0.7,2.6,2.1,4.3L616.5,312.8z M613.3,307.9c0.5-0.6,1.1-0.8,2-0.8c0.8,0,1.4,0.2,1.9,0.7s0.7,1,0.7,1.7
				c0,1-0.4,1.9-1.1,2.5l-0.6,0.5l-1.9,1.3c-1.2-1.5-1.8-2.7-1.8-3.7C612.6,309.2,612.8,308.5,613.3,307.9z"/>
			<path class="st0" d="M612.4,320.3c-1.6,1.2-2.4,2.6-2.4,4.2c0,1.4,0.4,2.5,1.3,3.3c0.9,0.9,2.1,1.3,3.5,1.3
				c1.7,0,3.2-0.6,4.7-1.7l-6.5-7.6L612.4,320.3z M614.9,328.8c-1.4,0-2.4-0.4-3.2-1.2c-0.8-0.8-1.2-1.8-1.2-3
				c0-1.5,0.7-2.7,2.3-3.9l0.3-0.2l5.9,7C617.6,328.3,616.3,328.8,614.9,328.8z"/>
			<path class="st0" d="M627.9,318.6l-4.3,0.4c-0.1,1.8-0.5,3.5-1.2,5l-5.7-6.8l2-1.5c1.4-1,2.4-2.1,3.1-3.1c0.6-1,0.9-2.2,0.9-3.4
				c0-1.9-0.7-3.4-2.1-4.7c-1.4-1.3-3.1-1.9-5.3-1.9c-2.4,0-4.3,0.7-5.7,2c-1.4,1.4-2.1,3.2-2.1,5.5c0,1,0.2,1.9,0.7,3
				c0.5,1,1.3,2.3,2.4,3.7c-2.2,1.6-3.7,2.9-4.4,4.1c-0.7,1.1-1.1,2.4-1.1,3.8c0,2.5,0.9,4.5,2.6,6.1c1.8,1.6,4.1,2.3,7,2.3
				s5.5-0.8,7.6-2.4l1.6,1.9c1.6,0.2,3.3,0.1,5-0.1l0.2-0.6l-3.7-4.4C627,325.3,627.9,322.3,627.9,318.6z M612.7,307.4
				c0.7-0.7,1.5-1.1,2.6-1.1c1,0,1.9,0.3,2.5,0.9c0.7,0.6,1,1.4,1,2.3c0,1.3-0.5,2.4-1.4,3.2l-0.6,0.5l-2.3,1.6
				c-0.1,0.1-0.2,0.1-0.2,0.1c-0.1,0-0.3-0.1-0.3-0.2c-1.5-1.8-2.2-3.3-2.2-4.6C611.7,309,612,308.1,612.7,307.4z M619.8,327.9
				c-1.5,1.2-3.2,1.8-4.9,1.8c-1.6,0-2.9-0.5-3.8-1.4c-1-0.9-1.5-2.2-1.5-3.6c0-1.7,0.9-3.3,2.6-4.6l0.6-0.5
				c0.1-0.1,0.2-0.1,0.3-0.1s0.2,0.1,0.3,0.2l6.5,7.6c0.1,0.1,0.1,0.2,0.1,0.3C620,327.7,619.9,327.8,619.8,327.9z"/>
			<path class="st0" d="M614.2,314.8c0.1,0,0.2,0,0.2-0.1l2.3-1.6l0.6-0.5c0.9-0.8,1.4-1.9,1.4-3.2c0-0.9-0.3-1.7-1-2.3
				c-0.7-0.6-1.5-0.9-2.5-0.9c-1.1,0-2,0.4-2.6,1.1s-1,1.7-1,2.7c0,1.3,0.7,2.7,2.2,4.6C614,314.8,614.1,314.8,614.2,314.8z
				 M613,307.6c0.6-0.7,1.3-1,2.3-1c0.9,0,1.6,0.3,2.2,0.8s0.9,1.2,0.9,2c0,1.2-0.4,2.1-1.3,2.9l-0.6,0.5l-2.3,1.5
				c-1.4-1.7-2.1-3.2-2.1-4.3C612.1,309.1,612.4,308.3,613,307.6z"/>
			<path class="st0" d="M613.4,319.6c-0.1-0.1-0.2-0.2-0.3-0.2s-0.2,0-0.3,0.1l-0.6,0.5c-1.7,1.3-2.6,2.9-2.6,4.6
				c0,1.5,0.5,2.7,1.5,3.6s2.3,1.4,3.8,1.4c1.8,0,3.4-0.6,4.9-1.8c0.1-0.1,0.2-0.2,0.2-0.3c0-0.1,0-0.2-0.1-0.3L613.4,319.6z
				 M614.9,329.2c-1.5,0-2.7-0.4-3.5-1.3c-0.9-0.9-1.3-2-1.3-3.3c0-1.6,0.8-3,2.4-4.2l0.6-0.4l6.5,7.6
				C618.1,328.6,616.5,329.2,614.9,329.2z"/>
		</g>
		<path class="st0" d="M795.9,326.1c0.7,0.7,1.1,1.7,1.1,3c0,1.4-0.4,2.4-1.1,3.3c-0.8,0.8-1.8,1.2-3.1,1.2s-2.3-0.4-3-1.1
			s-1.1-1.7-1.1-3.1c0-1.3,0.4-2.4,1.2-3.2c0.8-0.8,1.9-1.2,3.2-1.2C794.2,325.1,795.2,325.4,795.9,326.1z"/>
	</g>
</g>
<g id="TFE_new">
	<g>
		<path class="st0" d="M123.4,216.2l-1,13l-13.7-0.7h-3.1l-0.5,34.1l0.7,22.6H88.1l1-20.8l-0.5-35.9h-3.3l-13.8,0.7l-1.1-1.3l1.1-13
			h51L123.4,216.2z"/>
		<path class="st0" d="M205,222.8c5.5,6,8.2,14.5,8.2,25.6c0,12.1-3,21.4-8.9,28.1c-6,6.6-14.4,10-25.2,10c-10,0-17.7-3.1-23.1-9.2
			c-5.5-6.1-8.2-14.8-8.2-26.1c0-11.9,3-21.1,8.9-27.6s14.3-9.7,25.1-9.7C191.8,213.8,199.6,216.8,205,222.8z M172.1,230
			c-2,1.3-3.5,3.5-4.5,6.5c-0.9,3-1.4,7.1-1.4,12.3c0,6.2,0.5,11,1.4,14.6c0.9,3.5,2.5,6,4.5,7.6c2.1,1.5,4.9,2.3,8.4,2.3
			s6.2-0.7,8.3-2c2-1.3,3.5-3.5,4.4-6.6s1.4-7.2,1.4-12.5c0-6.1-0.5-10.9-1.4-14.4s-2.4-6-4.5-7.5c-2-1.5-4.9-2.2-8.5-2.2
			C176.8,228,174.1,228.6,172.1,230z"/>
		<path class="st0" d="M295.5,222.8c5.5,6,8.2,14.5,8.2,25.6c0,12.1-3,21.4-8.9,28.1c-6,6.6-14.4,10-25.2,10
			c-10,0-17.7-3.1-23.1-9.2c-5.5-6.1-8.2-14.8-8.2-26.1c0-11.9,3-21.1,8.9-27.6s14.3-9.7,25.1-9.7
			C282.3,213.8,290.1,216.8,295.5,222.8z M262.6,230c-2,1.3-3.5,3.5-4.5,6.5c-0.9,3-1.4,7.1-1.4,12.3c0,6.2,0.5,11,1.4,14.6
			c0.9,3.5,2.5,6,4.5,7.6c2.1,1.5,4.9,2.3,8.4,2.3s6.2-0.7,8.3-2c2-1.3,3.5-3.5,4.4-6.6s1.4-7.2,1.4-12.5c0-6.1-0.5-10.9-1.4-14.4
			s-2.4-6-4.5-7.5c-2-1.5-4.9-2.2-8.5-2.2C267.3,228,264.6,228.6,262.6,230z"/>
		<path class="st0" d="M381.3,228.7L381,245h8.8l12.2-0.3l1,1.3l-1.1,13.1l-13.4-0.3h-7.7l-0.1,3.8l0.7,22.6h-17.8l1-20.8l-1-49.5
			h44l1,1.3l-1.2,13.1l-17-0.7L381.3,228.7z"/>
		<path class="st0" d="M496.6,285.2h-18l-1.9-10.1l-1-4l-12.6-0.2l-10.9,0.3l-0.9,2.8l-2,11.2H432l22.7-70.3H476L496.6,285.2z
			 M472.4,257.7l-6.9-26.7h-1.1l-8.2,26.7l8.1,0.2L472.4,257.7z"/>
		<path class="st0" d="M582.1,281l-0.2,2c-5.5,1.8-11.4,2.9-17.5,3.4l-1.7-1.4c-4.4-8.1-8.1-15.6-11.3-22.3H542l0.7,22.6h-17.8
			l1-20.8l-1-49.5l29.6-0.1c7.6,0,13.5,1.8,17.6,5.5s6.2,8.9,6.2,15.8c0,4.3-1.1,8.3-3.3,12s-5.3,6.8-9.3,9.4
			C571.8,266.8,577.2,274.6,582.1,281z M542.3,249.3l9.5,0.4c2.7-1,4.7-2.5,5.9-4.5c1.3-2,1.9-4.5,1.9-7.6c0-3.4-0.9-5.9-2.7-7.6
			c-1.8-1.6-4.6-2.5-8.3-2.7l-5.9,0.3L542.3,249.3z"/>
		<path class="st0" d="M688.5,270.8l1,1.3l-1.1,13.1H642l1-20.8l-1-49.5h47.1l1,1.3l-1.2,13.1l-17.1-0.7l-12,0.1l-0.2,14.1H671
			l11.4-0.3l1,1.3l-1.1,13.1l-12.5-0.3h-10.6l-0.1,6.1l0.2,8.7l11.6,0.1L688.5,270.8z"/>
		<path class="st0" d="M781.2,285.2h-18l-1.9-10.1l-1-4l-12.6-0.2l-10.9,0.3L736,274l-2,11.2h-17.3l22.7-70.3h21.3L781.2,285.2z
			 M757,257.7l-6.9-26.7H749l-8.2,26.7l8.1,0.2L757,257.7z"/>
		<path class="st0" d="M851.4,217.5l-2.8,14.8l-2.6,1c-2.8-1.8-5.5-3.2-8.3-4.3c-2.8-1-5.2-1.5-7.2-1.5c-2.4,0-4.3,0.6-5.7,1.8
			s-2.1,2.6-2.1,4.2c0,1.8,0.9,3.4,2.7,4.6c1.8,1.3,4.6,2.8,8.4,4.5c4.1,1.9,7.4,3.6,9.9,5.2c2.5,1.6,4.7,3.7,6.5,6.3
			c1.9,2.6,2.8,5.8,2.8,9.6c0,4.2-1.1,8-3.4,11.4c-2.3,3.4-5.5,6.1-9.8,8.1c-4.2,2-9.1,3-14.6,3c-7.3,0-14.6-1.5-21.8-4.4l2.5-15.8
			l1.9-1.1c3.1,2.5,6.4,4.5,10,5.9s6.7,2.1,9.3,2.1c2.8,0,4.9-0.6,6.3-1.9c1.4-1.2,2.1-2.7,2.1-4.4c0-2-0.9-3.6-2.7-4.9
			s-4.7-2.8-8.5-4.6c-3.9-1.8-7.1-3.5-9.6-5.1s-4.7-3.7-6.5-6.3s-2.7-5.8-2.7-9.6c0-4.3,1.1-8.2,3.4-11.6c2.3-3.5,5.5-6.2,9.6-8.1
			c4.1-2,8.8-2.9,14.1-2.9C838.7,213.8,845,215,851.4,217.5z"/>
		<path class="st0" d="M929.7,216.2l-1,13l-13.7-0.7h-3.1l-0.5,34.1l0.7,22.6h-17.7l1-20.8l-0.5-35.9h-3.3l-13.8,0.7l-1.1-1.3
			l1.1-13h51L929.7,216.2z"/>
	</g>
</g>
<g id="tfe_orginal" class="st1">
	<path class="st6" d="M124.7,217.2l-1,13.3l-14.1-1h-4l-0.4,33.8l0.6,22.4H88.5l0.7-20.7l-0.3-35.4h-4l-14.4,1l-1.1-1.4l1-13.3h53.4
		L124.7,217.2z"/>
	<path class="st6" d="M207.3,223.7c5.7,6,8.6,14.5,8.6,25.5c0,12-3.1,21.3-9.3,27.9s-15,9.9-26.4,9.9c-10.4,0-18.5-3.1-24.2-9.2
		s-8.6-14.8-8.6-25.9c0-11.8,3.1-20.9,9.3-27.4s14.9-9.7,26.3-9.7C193.5,214.8,201.6,217.8,207.3,223.7z M169.2,233.5
		c-2.4,3.1-3.7,8.4-3.7,16c0,6.1,0.5,10.9,1.6,14.3c1.1,3.5,2.8,5.9,5.1,7.4c2.4,1.5,5.5,2.2,9.5,2.2c5.8,0,9.9-1.5,12.4-4.6
		c2.4-3,3.7-8.4,3.7-16c0-6.1-0.6-10.9-1.7-14.3c-1.1-3.5-2.8-5.9-5.1-7.4s-5.5-2.2-9.5-2.2C175.7,228.9,171.7,230.4,169.2,233.5z"
		/>
	<path class="st6" d="M298.8,223.7c5.7,6,8.6,14.5,8.6,25.5c0,12-3.1,21.3-9.3,27.9c-6.2,6.6-15,9.9-26.4,9.9
		c-10.4,0-18.5-3.1-24.2-9.2s-8.6-14.8-8.6-25.9c0-11.8,3.1-20.9,9.3-27.4s14.9-9.7,26.3-9.7C285,214.8,293.1,217.8,298.8,223.7z
		 M260.7,233.5c-2.4,3.1-3.7,8.4-3.7,16c0,6.1,0.5,10.9,1.6,14.3c1.1,3.5,2.8,5.9,5.1,7.4c2.4,1.5,5.5,2.2,9.5,2.2
		c5.8,0,9.9-1.5,12.4-4.6c2.4-3,3.7-8.4,3.7-16c0-6.1-0.6-10.9-1.7-14.3c-1.1-3.5-2.8-5.9-5.1-7.4c-2.3-1.5-5.5-2.2-9.5-2.2
		C267.2,228.9,263.1,230.4,260.7,233.5z"/>
	<path class="st6" d="M382.8,229.4l-0.3,16.5l9.7,0.1l12.9-0.4l1.1,1.2l-1.2,13l-14.1-0.4l-8.6,0.1l-0.1,3.7l0.7,22.4h-17.4
		l0.8-20.7l-0.8-49.1h45.6l1,1.4l-1.2,12.9l-17.8-0.7L382.8,229.4L382.8,229.4z"/>
	<path class="st6" d="M500.8,285.7h-17.6l-1.9-10.1l-1.2-4l-14.1-0.1l-12.4,0.3l-1,2.9l-2.1,11.1h-17l24.5-69.9h20.6L500.8,285.7z
		 M476.3,258.5l-7.9-26.7h-1.1l-9.3,26.7l9,0.1L476.3,258.5z"/>
	<path class="st6" d="M584.7,281.7l-0.1,1.9c-5.7,1.8-11.3,2.8-16.9,3.2l-2.5-1.7c-5.2-8.9-9.2-16.3-12-22h-10.7v0.1l0.7,22.4h-17.4
		l0.7-20.7l-0.7-49.1l30.2-0.1c7.8,0,13.9,1.8,18.2,5.5c4.3,3.6,6.4,8.8,6.4,15.6c0,4.3-1.2,8.4-3.5,12.1c-2.3,3.7-5.5,6.8-9.7,9.3
		C573.5,267.1,579.3,275,584.7,281.7z M542.7,249.9l10.4,0.6c3.1-1,5.4-2.5,6.9-4.4s2.2-4.4,2.2-7.5c0-3.3-1-5.8-2.9-7.4
		c-1.9-1.6-5-2.5-9.1-2.7l-7.1,0.3L542.7,249.9z"/>
	<path class="st6" d="M687.1,271.6l1.1,1.1l-1.2,13h-47.9l0.7-20.7l-0.7-49.1h48.6l1,1.4l-1.1,12.9l-18-0.7h-13l-0.3,14.1l12.4,0.1
		l12-0.4l1,1.2l-1.1,13.1l-13.1-0.4H656l-0.1,6.1l0.3,8.9h12.2L687.1,271.6z"/>
	<path class="st6" d="M782.2,285.7h-17.6l-1.9-10.1l-1.2-4l-14.1-0.1l-12.4,0.3l-1,2.9l-2.1,11.1h-17l24.5-69.9H760L782.2,285.7z
		 M757.5,258.5l-7.9-26.7h-1.1l-9.3,26.7l9,0.1L757.5,258.5z"/>
	<path class="st6" d="M852,218.4l-2.6,15.5l-2.5,0.7c-3-2.2-5.8-3.9-8.6-5s-5.3-1.7-7.6-1.7c-2.6,0-4.6,0.6-6.1,1.9
		c-1.5,1.2-2.2,2.7-2.2,4.5c0,1.9,0.9,3.5,2.8,4.8c1.8,1.2,4.7,2.7,8.7,4.4c4.2,1.8,7.5,3.4,10.2,4.8c2.6,1.5,4.9,3.5,6.8,6.2
		c1.9,2.6,2.8,5.9,2.8,9.9s-1,7.7-3.1,11.1c-2.1,3.5-5.2,6.2-9.4,8.4c-4.2,2.1-9.4,3.2-15.6,3.2c-3.3,0-6.9-0.3-10.9-1
		c-3.9-0.7-7.7-1.8-11.4-3.3l2.4-16.3l1.8-1.2c3,2.8,6.5,5,10.2,6.6c3.8,1.7,7.1,2.5,10.1,2.5c2.6,0,4.7-0.6,6.3-1.9
		s2.4-2.9,2.4-4.8c0-2-0.9-3.7-2.8-4.9c-1.9-1.2-4.8-2.6-8.8-4.2c-4.1-1.8-7.5-3.4-10.2-4.9c-2.6-1.5-4.9-3.6-6.8-6.3
		c-1.9-2.7-2.8-6-2.8-10c0-4.1,1.1-7.9,3.4-11.3c2.3-3.4,5.5-6.1,9.7-8s9.1-2.9,14.7-2.9C839.6,214.9,846,216,852,218.4z"/>
	<path class="st6" d="M930.6,217.2l-1,13.3l-14.1-1h-4l-0.4,33.8l0.6,22.4h-17.3l0.7-20.7l-0.3-35.4h-4l-14.4,1l-1.1-1.4l1-13.3
		h53.4L930.6,217.2z"/>
</g>
<g id="tfe_type" class="st1">
	<text transform="matrix(1 0 0 1 69 286.1787)" class="st8 st9 st10 st11">TOO FAR EAST</text>
</g>
</svg>
